g arrow_metal_LOD2
v 9.3920484E-05 0.5532151 1.8804132E-22
v 0.06925158 0.2822542 0.0686263
v -0.07136999 0.28325996 0.06641266
v -0.07136999 0.28325996 0.06641266
v 0.06925158 0.2822542 0.0686263
v -0.0005262661 0.13757595 -0.003281809
v -0.06914312 0.28703982 -0.07415958
v -0.0005262661 0.13757595 -0.003281809
v 0.07147853 0.2860341 -0.07194559
v 9.3920484E-05 0.5532151 1.8804132E-22
v -0.06914312 0.28703982 -0.07415958
v 0.07147853 0.2860341 -0.07194559
v -0.040012494 -0.48459333 0.003310406
v -0.039929584 -0.25269043 0.0032115995
v -0.10371324 -0.28917822 0.08069254
v -0.10379614 -0.52108115 0.08079135
v 0.0029659073 -0.48459333 0.03937354
v 0.0030488158 -0.25269043 0.039274734
v -0.039929584 -0.25269043 0.0032115995
v -0.040012494 -0.48459333 0.003310406
v -0.060734857 -0.28917822 0.1167557
v -0.10371324 -0.28917822 0.08069254
v -0.039929584 -0.25269043 0.0032115995
v 0.0030488158 -0.25269043 0.039274734
v -0.06081777 -0.52108115 0.116854504
v -0.060734857 -0.28917822 0.1167557
v 0.0030488158 -0.25269043 0.039274734
v 0.0029659073 -0.48459333 0.03937354
v -0.10379614 -0.52108115 0.08079135
v -0.10371324 -0.28917822 0.08069254
v -0.060734857 -0.28917822 0.1167557
v -0.06081777 -0.52108115 0.116854504
v 0.0029659073 -0.48459333 0.03937354
v -0.040012494 -0.48459333 0.003310406
v -0.10379614 -0.52108115 0.08079135
v -0.06081777 -0.52108115 0.116854504
v 0.112506196 0.28403208 2.4693662E-08
v 9.3920484E-05 0.5532151 1.8804132E-22
v 0.07147853 0.2860341 -0.07194559
v 0.06925158 0.2822542 0.0686263
v -0.0005262661 0.13757595 -0.003281809
v 0.112506196 0.28403208 2.4693662E-08
v 0.07147853 0.2860341 -0.07194559
v 0.06925158 0.2822542 0.0686263
v -0.07136999 0.28325996 0.06641266
v -0.0005262661 0.13757595 -0.003281809
v -0.11231893 0.28531092 -2.4889646E-08
v -0.06914312 0.28703982 -0.07415958
v -0.06914312 0.28703982 -0.07415958
v 9.3920484E-05 0.5532151 1.8804132E-22
v -0.11231893 0.28531092 -2.4889646E-08
v -0.07136999 0.28325996 0.06641266
v 0.04156183 0.109447464 0.04156183
v 0.036389425 0.25849023 0.036389425
v 0.036389425 0.25849023 -0.036389425
v 0.04156183 0.109447464 -0.04156183
v 0.04156183 0.109447464 -0.04156183
v 0.036389425 0.25849023 -0.036389425
v -0.036389425 0.25849023 -0.036389425
v -0.04156183 0.109447464 -0.04156183
v -0.04156183 0.109447464 -0.04156183
v -0.036389425 0.25849023 -0.036389425
v -0.036389425 0.25849023 0.036389425
v -0.04156183 0.109447464 0.04156183
v 0.036389425 0.25849023 0.036389425
v 0.04156183 0.109447464 0.04156183
v 0.04156183 0.109447464 -0.04156183
v 0.038902085 -0.47956714 -0.038902085
v 0.038902085 -0.47956714 0.038902085
v 0.04156183 0.109447464 0.04156183
v -0.04156183 0.109447464 -0.04156183
v -0.038902085 -0.47956714 -0.038902085
v 0.038902085 -0.47956714 -0.038902085
v 0.04156183 0.109447464 -0.04156183
v -0.04156183 0.109447464 0.04156183
v -0.038902085 -0.47956714 -0.038902085
v -0.04156183 0.109447464 -0.04156183
v -0.038902085 -0.47956714 0.038902085
v 0.04156183 0.109447464 0.04156183
v 0.038902085 -0.47956714 0.038902085
v -0.036389425 0.25849023 0.036389425
v -0.036389425 0.25849023 -0.036389425
v 0.036389425 0.25849023 -0.036389425
v 0.036389425 0.25849023 0.036389425
v -0.038902085 -0.47956714 -0.038902085
v -0.038902085 -0.47956714 0.038902085
v 0.038902085 -0.47956714 0.038902085
v 0.038902085 -0.47956714 -0.038902085
v 0.020793825 -0.48459333 0.034741383
v 0.020666804 -0.25269043 0.034718987
v 0.1238177 -0.28917822 0.051485624
v 0.12394474 -0.5210812 0.05150802
v 0.03053623 -0.48459333 -0.024268845
v 0.03040921 -0.25269043 -0.024291245
v 0.020666804 -0.25269043 0.034718987
v 0.020793825 -0.48459333 0.034741383
v 0.13356012 -0.28917822 -0.007524661
v 0.1238177 -0.28917822 0.051485624
v 0.020666804 -0.25269043 0.034718987
v 0.03040921 -0.25269043 -0.024291245
v 0.13368715 -0.5210812 -0.0075022634
v 0.13356012 -0.28917822 -0.007524661
v 0.03040921 -0.25269043 -0.024291245
v 0.03053623 -0.48459333 -0.024268845
v 0.12394474 -0.5210812 0.05150802
v 0.1238177 -0.28917822 0.051485624
v 0.13356012 -0.28917822 -0.007524661
v 0.13368715 -0.5210812 -0.0075022634
v 0.03053623 -0.48459333 -0.024268845
v 0.020793825 -0.48459333 0.034741383
v 0.12394474 -0.5210812 0.05150802
v 0.13368715 -0.5210812 -0.0075022634
v 0.017033748 -0.48459333 -0.034562286
v 0.01707786 -0.25269043 -0.03444108
v -0.015945863 -0.28917822 -0.13190931
v -0.015989978 -0.5210812 -0.13203052
v -0.03766074 -0.48459333 -0.01537348
v -0.03761662 -0.25269043 -0.015252273
v 0.01707786 -0.25269043 -0.03444108
v 0.017033748 -0.48459333 -0.034562286
v -0.07064046 -0.28917822 -0.11272052
v -0.015945863 -0.28917822 -0.13190931
v 0.01707786 -0.25269043 -0.03444108
v -0.03761662 -0.25269043 -0.015252273
v -0.07068456 -0.5210812 -0.11284172
v -0.07064046 -0.28917822 -0.11272052
v -0.03761662 -0.25269043 -0.015252273
v -0.03766074 -0.48459333 -0.01537348
v -0.015989978 -0.5210812 -0.13203052
v -0.015945863 -0.28917822 -0.13190931
v -0.07064046 -0.28917822 -0.11272052
v -0.07068456 -0.5210812 -0.11284172
v -0.03766074 -0.48459333 -0.01537348
v 0.017033748 -0.48459333 -0.034562286
v -0.015989978 -0.5210812 -0.13203052
v -0.07068456 -0.5210812 -0.11284172
vt 0.14869547 0.40398297
vt 0.16660449 0.4424266
vt 0.14869547 0.4424266
vt 0.15152147 0.3322923
vt 0.16530749 0.3322923
vt 0.15152147 0.35832337
vt 0.15085149 0.3314843
vt 0.15085149 0.3575153
vt 0.1646365 0.3314843
vt 0.14634249 0.4041663
vt 0.14634249 0.44260994
vt 0.1642505 0.44260952
vt 0.83747005 0.8458667
vt 0.83747005 0.773952
vt 0.8322624 0.7745453
vt 0.8322624 0.84646
vt 0.84267783 0.84646
vt 0.84267783 0.7745453
vt 0.83747005 0.773952
vt 0.83747005 0.8458667
vt 0.83695334 0.81586075
vt 0.83695334 0.8150747
vt 0.8472397 0.8150747
vt 0.8472397 0.81586075
vt 0.8478855 0.8458666
vt 0.8478855 0.773952
vt 0.84267783 0.7745453
vt 0.84267783 0.84646
vt 0.85263383 0.84645987
vt 0.8526338 0.7745453
vt 0.8478855 0.773952
vt 0.8478855 0.8458666
vt 0.836892 0.7423103
vt 0.836892 0.7416872
vt 0.8470227 0.7416872
vt 0.8470227 0.7423103
vt 0.15765601 0.44959405
vt 0.14869547 0.41115043
vt 0.14869547 0.44959405
vt 0.16660449 0.44959405
vt 0.15085149 0.3266562
vt 0.15773931 0.30062518
vt 0.1646365 0.30062518
vt 0.15085149 0.30062518
vt 0.16510347 0.30062518
vt 0.15131748 0.3266562
vt 0.15797666 0.30062518
vt 0.15131748 0.30062518
vt 0.14680848 0.44977692
vt 0.14680848 0.4113333
vt 0.15545923 0.44977692
vt 0.16471747 0.44977692
vt 0.15458944 0.3396072
vt 0.16224834 0.39494428
vt 0.1668435 0.39494428
vt 0.1499944 0.3396072
vt 0.16760924 0.3396072
vt 0.14922857 0.39494428
vt 0.15305799 0.39494428
vt 0.16377988 0.3396072
vt 0.16377988 0.3396072
vt 0.15305799 0.39494428
vt 0.15765315 0.39494428
vt 0.1591847 0.3396072
vt 0.16224834 0.39494428
vt 0.15458944 0.3396072
vt 0.40232757 0.7784579
vt 0.41917667 0.8623872
vt 0.4145815 0.8623872
vt 0.40692264 0.7784579
vt 0.41611305 0.7784579
vt 0.40539116 0.8623872
vt 0.40156174 0.8623872
vt 0.4199424 0.7784579
vt 0.41151786 0.7784579
vt 0.40539116 0.8623872
vt 0.41611305 0.7784579
vt 0.40998632 0.8623872
vt 0.40692264 0.7784579
vt 0.4145815 0.8623872
vt 0.15516499 0.34027824
vt 0.15516499 0.34359905
vt 0.15976018 0.34359905
vt 0.15976018 0.34027824
vt 0.40836358 0.67339706
vt 0.40836358 0.67739046
vt 0.41295874 0.67739046
vt 0.41295874 0.67339706
vt 0.83747005 0.8458667
vt 0.83747005 0.773952
vt 0.8322624 0.7745453
vt 0.8322624 0.84646
vt 0.84267783 0.84646
vt 0.84267783 0.7745453
vt 0.83747005 0.773952
vt 0.83747005 0.8458667
vt 0.83695334 0.81586075
vt 0.83695334 0.8150747
vt 0.8472397 0.8150747
vt 0.8472397 0.81586075
vt 0.8478855 0.8458666
vt 0.8478855 0.773952
vt 0.84267783 0.7745453
vt 0.84267783 0.84646
vt 0.85263383 0.84645987
vt 0.8526338 0.7745453
vt 0.8478855 0.773952
vt 0.8478855 0.8458666
vt 0.836892 0.7423103
vt 0.836892 0.7416872
vt 0.8470227 0.7416872
vt 0.8470227 0.7423103
vt 0.83747005 0.8458667
vt 0.83747005 0.773952
vt 0.8322624 0.7745453
vt 0.8322624 0.84646
vt 0.84267783 0.84646
vt 0.84267783 0.7745453
vt 0.83747005 0.773952
vt 0.83747005 0.8458667
vt 0.83695334 0.81586075
vt 0.83695334 0.8150747
vt 0.8472397 0.8150747
vt 0.8472397 0.81586075
vt 0.8478855 0.8458666
vt 0.8478855 0.773952
vt 0.84267783 0.7745453
vt 0.84267783 0.84646
vt 0.85263383 0.84645987
vt 0.8526338 0.7745453
vt 0.8478855 0.773952
vt 0.8478855 0.8458666
vt 0.836892 0.7423103
vt 0.836892 0.7416872
vt 0.8470227 0.7416872
vt 0.8470227 0.7423103
vn -0.013538873 0.24224687 0.9701202
vn -0.01353887 0.24224687 0.9701202
vn -0.013538871 0.24224687 0.9701202
vn -0.017281437 -0.43831557 0.89865506
vn -0.017281437 -0.43831557 0.89865506
vn -0.017281437 -0.43831557 0.89865506
vn 0.011222052 -0.42423916 -0.9054806
vn 0.011222053 -0.42423922 -0.9054806
vn 0.011222053 -0.42423913 -0.9054806
vn 0.017072076 0.26422715 -0.96430933
vn 0.017072076 0.26422718 -0.96430933
vn 0.017072074 0.26422712 -0.96430933
vn -0.45900697 -0.33321184 -0.8235791
vn -0.45788845 0.33922777 -0.8217437
vn -0.8903264 0.33875933 -0.30423835
vn -0.8923256 -0.332744 -0.30501875
vn 0.8202664 -0.3339031 -0.4644047
vn 0.8184282 0.33991924 -0.46328196
vn 0.2979444 0.3380201 -0.89273256
vn 0.29872155 -0.33200523 -0.8947279
vn 0.03337525 0.8806331 0.47262183
vn -0.48261645 0.8750424 0.037176803
vn -0.050164927 0.8764203 -0.47892684
vn 0.46898153 0.88202035 -0.04578671
vn 0.45533735 -0.3327426 0.8258028
vn 0.4542217 0.33875793 0.82396954
vn 0.888771 0.33922634 0.30823973
vn 0.89077264 -0.33321053 0.30902237
vn -0.8292609 -0.33199957 0.4495584
vn -0.827431 0.3380142 0.44844654
vn -0.3141322 0.33991322 0.88644224
vn -0.3149187 -0.3338972 0.88844734
vn 0.46898153 -0.88202035 -0.045786694
vn -0.0501649 -0.87642044 -0.47892675
vn -0.4826161 -0.87504256 0.03717668
vn 0.033375233 -0.8806333 0.4726214
vn 0.92233354 0.38517144 0.030721232
vn 0.9226104 0.38528705 0.018544015
vn 0.8202037 0.3425214 -0.45819753
vn 0.79419684 0.33166093 0.5091684
vn 0.791707 -0.61085045 -0.007862776
vn 0.79171413 -0.61081433 -0.009719337
vn 0.7207338 -0.5466998 -0.42621824
vn 0.70906544 -0.55693656 0.43249032
vn -0.7171942 -0.5521531 0.4251582
vn -0.79693836 -0.6019244 -0.0507578
vn -0.7973461 -0.6026329 -0.032754645
vn -0.7231824 -0.53760874 -0.43357155
vn -0.81548375 0.34217787 -0.4667982
vn -0.9216629 0.38673073 -0.031255677
vn -0.9221096 0.38691813 0.002865727
vn -0.7974809 0.33462378 0.502047
vn 0.70710003 0.0043641613 0.70710003
vn 0.70625675 0.04902011 0.70625675
vn 0.70625675 0.04902011 -0.70625675
vn 0.70710003 0.0043641613 -0.70710003
vn 0.70710003 0.0043641613 -0.70710003
vn 0.70625675 0.04902011 -0.70625675
vn -0.70625675 0.04902011 -0.70625675
vn -0.70710003 0.0043641613 -0.70710003
vn -0.70710003 0.0043641613 -0.70710003
vn -0.70625675 0.04902011 -0.70625675
vn -0.70625675 0.04902011 0.70625675
vn -0.70710003 0.0043641613 0.70710003
vn 0.70625675 0.04902011 0.70625675
vn 0.70710003 0.0043641613 0.70710003
vn 0.70710003 0.0043641613 -0.70710003
vn 0.7070924 -0.006385868 -0.70709234
vn 0.7070924 -0.006385868 0.70709234
vn 0.70710003 0.0043641613 0.70710003
vn -0.70710003 0.0043641613 -0.70710003
vn -0.7070924 -0.006385868 -0.70709234
vn 0.7070924 -0.006385868 -0.70709234
vn 0.70710003 0.0043641613 -0.70710003
vn -0.70710003 0.0043641613 0.70710003
vn -0.7070924 -0.006385868 -0.70709234
vn -0.70710003 0.0043641613 -0.70710003
vn -0.7070924 -0.006385868 0.70709234
vn 0.70710003 0.0043641613 0.70710003
vn 0.7070924 -0.006385868 0.70709234
vn -0 1 0
vn -0 1 0
vn -0 1 0
vn -0 1 0
vn -0 -1 0
vn -0 -1 0
vn -0 -1 0
vn -0 -1 0
vn -0.48373693 -0.33321187 0.80930126
vn -0.4827067 0.33922777 0.8074149
vn 0.18168508 0.33875933 0.9231644
vn 0.18200882 -0.33274403 0.92528605
vn -0.81231946 -0.3339031 -0.47816923
vn -0.8104281 0.33991924 -0.4771386
vn -0.92210126 0.3380201 0.1883389
vn -0.9242179 -0.33200526 0.1886635
vn 0.39261484 0.8806331 -0.26521474
vn 0.2735043 0.8750424 0.39936978
vn -0.3896803 0.8764203 0.2829075
vn -0.2741432 0.88202035 -0.38325655
vn 0.48749754 -0.33274257 -0.8072351
vn 0.48646775 0.3387579 -0.8053523
vn -0.17744207 0.33922634 -0.92381805
vn -0.17776512 -0.33321056 -0.92594296
vn 0.8039595 -0.33199957 0.4933817
vn 0.8020816 0.3380142 0.49235305
vn 0.92474765 0.33991322 -0.17117466
vn 0.92687744 -0.33389726 -0.17149608
vn -0.2741432 -0.88202035 -0.38325655
vn -0.3896803 -0.87642044 0.2829075
vn 0.273504 -0.87504256 0.3993694
vn 0.3926145 -0.88063335 -0.2652145
vn 0.94274384 -0.33321184 0.014277815
vn 0.9405952 0.33922777 0.01432878
vn 0.70864135 0.33875933 -0.6189261
vn 0.7103168 -0.33274397 -0.6202673
vn -0.007946969 -0.3339031 0.9425739
vn -0.008000105 0.3399192 0.94042057
vn 0.62415695 0.3380201 0.7043936
vn 0.6254963 -0.3320052 0.70606434
vn -0.42599016 0.8806331 -0.20740709
vn 0.20911217 0.8750424 -0.43654656
vn 0.4398453 0.8764203 0.1960193
vn -0.19483833 0.88202035 0.42904326
vn -0.94283485 -0.33274254 -0.018567681
vn -0.9406894 0.3387579 -0.018617272
vn -0.71132886 0.3392263 0.6155784
vn -0.71300757 -0.33321053 0.6169206
vn 0.025301369 -0.33199957 -0.9429402
vn 0.025349407 0.3380142 -0.94079953
vn -0.61061555 0.33991328 -0.7152676
vn -0.6119587 -0.3338972 -0.7169513
vn -0.19483829 -0.88202035 0.42904326
vn 0.43984517 -0.87642044 0.19601929
vn 0.20911208 -0.8750427 -0.43654615
vn -0.42598975 -0.88063335 -0.20740688
g arrow_metal_LOD2_0
f 3/3/3 2/2/2 1/1/1
f 6/6/6 5/5/5 4/4/4
f 9/9/9 8/8/8 7/7/7
f 12/12/12 11/11/11 10/10/10
f 15/15/15 14/14/14 13/13/13
f 16/16/16 15/15/15 13/13/13
f 19/19/19 18/18/18 17/17/17
f 20/20/20 19/19/19 17/17/17
f 23/23/23 22/22/22 21/21/21
f 24/24/24 23/23/23 21/21/21
f 27/27/27 26/26/26 25/25/25
f 28/28/28 27/27/27 25/25/25
f 31/31/31 30/30/30 29/29/29
f 32/32/32 31/31/31 29/29/29
f 35/35/35 34/34/34 33/33/33
f 36/36/36 35/35/35 33/33/33
f 39/39/39 38/38/38 37/37/37
f 40/40/40 37/37/37 38/38/38
f 43/43/43 42/42/42 41/41/41
f 42/42/42 44/44/44 41/41/41
f 47/47/47 46/46/46 45/45/45
f 47/47/47 48/48/48 46/46/46
f 51/51/51 50/50/50 49/49/49
f 51/51/51 52/52/52 50/50/50
f 55/55/55 54/54/54 53/53/53
f 56/56/56 55/55/55 53/53/53
f 59/59/59 58/58/58 57/57/57
f 60/60/60 59/59/59 57/57/57
f 63/63/63 62/62/62 61/61/61
f 64/64/64 63/63/63 61/61/61
f 65/65/65 63/63/63 64/64/64
f 66/66/66 65/65/65 64/64/64
f 69/69/69 68/68/68 67/67/67
f 70/70/70 69/69/69 67/67/67
f 73/73/73 72/72/72 71/71/71
f 74/74/74 73/73/73 71/71/71
f 77/77/77 76/76/76 75/75/75
f 76/76/76 78/78/78 75/75/75
f 75/75/75 78/78/78 79/79/79
f 78/78/78 80/80/80 79/79/79
f 83/83/83 82/82/82 81/81/81
f 84/84/84 83/83/83 81/81/81
f 87/87/87 86/86/86 85/85/85
f 88/88/88 87/87/87 85/85/85
f 91/91/91 90/90/90 89/89/89
f 92/92/92 91/91/91 89/89/89
f 95/95/95 94/94/94 93/93/93
f 96/96/96 95/95/95 93/93/93
f 99/99/99 98/98/98 97/97/97
f 100/100/100 99/99/99 97/97/97
f 103/103/103 102/102/102 101/101/101
f 104/104/104 103/103/103 101/101/101
f 107/107/107 106/106/106 105/105/105
f 108/108/108 107/107/107 105/105/105
f 111/111/111 110/110/110 109/109/109
f 112/112/112 111/111/111 109/109/109
f 115/115/115 114/114/114 113/113/113
f 116/116/116 115/115/115 113/113/113
f 119/119/119 118/118/118 117/117/117
f 120/120/120 119/119/119 117/117/117
f 123/123/123 122/122/122 121/121/121
f 124/124/124 123/123/123 121/121/121
f 127/127/127 126/126/126 125/125/125
f 128/128/128 127/127/127 125/125/125
f 131/131/131 130/130/130 129/129/129
f 132/132/132 131/131/131 129/129/129
f 135/135/135 134/134/134 133/133/133
f 136/136/136 135/135/135 133/133/133
