g banner_flag
v 0.9984636 -0.027531268 0.019959398
v 1.0483018 -1.3140182 0.03715864
v 0.9010128 -1.3079444 0.06464535
v 0.44966072 -2.1745052 0.124998726
v 0.79161245 -1.2620865 0.12399418
v 0.6982214 -2.0991163 0.14725934
v 0.66995615 -1.1570245 0.1518267
v 0.9930686 -0.004159095 0.018752282
v 0.9825807 0.008945819 0.02026338
v 0.24573605 -2.3553543 0.19602834
v 0.66995615 -1.1570245 0.1518267
v 0.44966072 -2.1745052 0.124998726
v 0.330988 -1.794705 0.22312379
v 0.17339985 -2.0166554 0.21313399
v -0.008684206 -2.4674127 0.1993529
v -0.01885594 -2.101746 0.19643568
v 0.48101944 -0.35656998 0.121902205
v 0.5701931 -0.15479201 0.114002034
v 0.9094512 0.012980806 0.04145749
v 0.2380549 -0.45992827 0.14685538
v 0.24853396 -0.24611638 0.1545533
v 0.0014553043 -0.5058759 0.15425906
v -0.017506164 -0.26159123 0.16700916
v 0.52613145 -0.4586193 0.1596906
v 0.48101944 -0.35656998 0.121902205
v 0.9094512 0.012980806 0.04145749
v 0.27447832 -0.6500108 0.20747858
v 0.2380549 -0.45992827 0.14685538
v 0.01022279 -0.7557256 0.22324681
v 0.0014553043 -0.5058759 0.15425906
v 0.54002905 -0.6464445 0.093488105
v 0.9094512 0.012980806 0.04145749
v 0.932247 0.020358909 0.0338207
v 0.52613145 -0.4586193 0.1596906
v 0.28422713 -0.94413924 0.14180969
v 0.27447832 -0.6500108 0.20747858
v 0.008475796 -1.0989611 0.16466361
v 0.01022279 -0.7557256 0.22324681
v 0.57620513 -0.825154 0.17041329
v 0.932247 0.020358909 0.0338207
v 0.950218 0.021160476 0.028388688
v 0.54002905 -0.6464445 0.093488105
v 0.31662792 -1.2211691 0.22475125
v 0.28422713 -0.94413924 0.14180969
v 0.008475796 -1.0989611 0.16466361
v 0.15083005 -1.3595825 0.24004193
v -0.002712117 -1.4308307 0.24423194
v 0.6107845 -1.0384237 0.08460719
v 0.950218 0.021160476 0.028388688
v 0.967149 0.018281812 0.023695176
v 0.57620513 -0.825154 0.17041329
v 0.32751882 -1.5258018 0.15014084
v 0.31662792 -1.2211691 0.22475125
v 0.15083005 -1.3595825 0.24004193
v 0.14864525 -1.7157321 0.15694572
v -0.002712117 -1.4308307 0.24423194
v -0.013811438 -1.7909763 0.15500051
v 0.66995615 -1.1570245 0.1518267
v 0.967149 0.018281812 0.023695176
v 0.9825807 0.008945819 0.02026338
v 0.6107845 -1.0384237 0.08460719
v 0.330988 -1.794705 0.22312379
v 0.32751882 -1.5258018 0.15014084
v 0.14864525 -1.7157321 0.15694572
v 0.17339985 -2.0166554 0.21313399
v -0.01885594 -2.101746 0.19643568
v -0.013811438 -1.7909763 0.15500051
v 0.9930686 -0.004159095 0.018752282
v 0.9984636 -0.027531268 0.019959398
v 0.9010128 -1.3079444 0.06464535
v 0.79161245 -1.2620865 0.12399418
v 0.6982214 -2.0991163 0.14725934
v 0.8997896 -1.8374048 0.03045609
v 1.0483018 -1.3140182 0.03715864
v 1.1270291 -1.8415568 -0.008388894
v 0.8997896 -1.8374048 0.03045609
v 0.9010128 -1.3079444 0.06464535
v -0.44971263 -2.2512622 0.12322506
v -0.6829858 -2.1926703 0.15496683
v -0.7930374 -1.5458039 0.121831216
v -0.63949007 -1.4469007 0.15975928
v -1.0090333 -0.005237096 0.024882374
v -0.9986554 0.010849007 0.025852973
v -0.2546772 -2.3989902 0.19564064
v -0.44971263 -2.2512622 0.12322506
v -0.63949007 -1.4469007 0.15975928
v -0.3469841 -1.9321525 0.21490945
v -0.1965216 -2.08231 0.2120607
v -0.008684206 -2.4674127 0.1993529
v -0.01885594 -2.101746 0.19643568
v -0.45046738 -0.42256296 0.13611975
v -0.91970694 0.012693908 0.048583664
v -0.5451621 -0.19399728 0.12840128
v -0.232097 -0.49678597 0.15204215
v -0.26407614 -0.2676228 0.15812966
v 0.0014553043 -0.5058759 0.15425906
v -0.017506164 -0.26159123 0.16700916
v -0.4570445 -0.6177157 0.17177814
v -0.91970694 0.012693908 0.048583664
v -0.45046738 -0.42256296 0.13611975
v -0.25583446 -0.7483352 0.21701531
v -0.232097 -0.49678597 0.15204215
v 0.01022279 -0.7557256 0.22324681
v 0.0014553043 -0.5058759 0.15425906
v -0.50071913 -0.8709959 0.10861539
v -0.94499415 0.022903463 0.03996102
v -0.91970694 0.012693908 0.048583664
v -0.4570445 -0.6177157 0.17177814
v -0.2659611 -1.130511 0.150936
v -0.25583446 -0.7483352 0.21701531
v 0.008475796 -1.0989611 0.16466361
v 0.01022279 -0.7557256 0.22324681
v -0.5000729 -1.0595105 0.18867186
v -0.96454155 0.024661079 0.034040734
v -0.94499415 0.022903463 0.03996102
v -0.50071913 -0.8709959 0.10861539
v -0.32128313 -1.3467019 0.22593264
v -0.2659611 -1.130511 0.150936
v 0.008475796 -1.0989611 0.16466361
v -0.16606161 -1.420121 0.23981467
v -0.002712117 -1.4308307 0.24423194
v -0.57007504 -1.3223928 0.09505339
v -0.9826606 0.021823417 0.029100109
v -0.96454155 0.024661079 0.034040734
v -0.5000729 -1.0595105 0.18867186
v -0.34301105 -1.7087872 0.14512764
v -0.32128313 -1.3467019 0.22593264
v -0.16606161 -1.420121 0.23981467
v -0.17258672 -1.7931206 0.15510973
v -0.002712117 -1.4308307 0.24423194
v -0.013811438 -1.7909763 0.15500051
v -0.63949007 -1.4469007 0.15975928
v -0.9986554 0.010849007 0.025852973
v -0.9826606 0.021823417 0.029100109
v -0.57007504 -1.3223928 0.09505339
v -0.3469841 -1.9321525 0.21490945
v -0.34301105 -1.7087872 0.14512764
v -0.17258672 -1.7931206 0.15510973
v -0.1965216 -2.08231 0.2120607
v -0.01885594 -2.101746 0.19643568
v -0.013811438 -1.7909763 0.15500051
v -1.0090333 -0.005237096 0.024882374
v -0.9008127 -1.5529727 0.06149011
v -1.0132457 -0.035142414 0.027360503
v -0.7930374 -1.5458039 0.121831216
v -0.6829858 -2.1926703 0.15496683
v -0.8756533 -1.9616951 0.03774297
v -1.0132457 -0.035142414 0.027360503
v -0.9008127 -1.5529727 0.06149011
v -1.0465852 -1.5268115 0.036067322
v -0.8756533 -1.9616951 0.03774297
v -1.098509 -1.9584861 0.0049603325
vt 0.9881122 0.7573979
vt 0.97395205 0.87031245
vt 0.9701686 0.8707811
vt 0.9452411 0.77969277
vt 0.96199155 0.731154
vt 0.9461783 0.7733806
vt 0.9611646 0.7454265
vt 0.9854169 0.7300069
vt 0.9854169 0.74671775
vt 0.96324015 0.7069917
vt 0.97532237 0.6948193
vt 0.9739845 0.70304424
vt 0.9631865 0.68661493
vt 0.9583318 0.68149525
vt 0.9527693 0.6868277
vt 0.95258856 0.6754381
vt 0.97025883 0.87591827
vt 0.97025883 0.9225586
vt 0.9933002 0.9225586
vt 0.9587381 0.8721915
vt 0.9587381 0.9225586
vt 0.94721746 0.86846477
vt 0.94721746 0.9225586
vt 0.9745996 0.991918
vt 0.9739845 0.9609638
vt 0.9937885 0.94288254
vt 0.962283 0.98651886
vt 0.9616678 0.9582715
vt 0.94832087 0.91432893
vt 0.94770575 0.8887886
vt 0.9707471 0.7621173
vt 0.9907124 0.8434101
vt 0.9919429 0.81158
vt 0.97043955 0.85904616
vt 0.95922637 0.7547678
vt 0.9551201 0.81880635
vt 0.9467292 0.7162063
vt 0.94420385 0.76386863
vt 0.97255397 0.9332878
vt 0.9952533 0.9226571
vt 0.9943305 0.934169
vt 0.9759376 0.86567974
vt 0.9590802 0.9413155
vt 0.96246374 0.8789069
vt 0.947525 0.80759037
vt 0.9495046 0.87064165
vt 0.9441415 0.86479986
vt 0.97037494 0.7022494
vt 0.9907484 0.78108156
vt 0.98977184 0.77145004
vt 0.96732914 0.7745159
vt 0.95787764 0.70703626
vt 0.9577615 0.73075515
vt 0.95134306 0.7013534
vt 0.9519831 0.6821301
vt 0.9457526 0.67574406
vt 0.94586873 0.6562955
vt 0.9756299 0.8960471
vt 0.98890567 0.9741025
vt 0.985976 0.99164027
vt 0.97514164 0.87504643
vt 0.96020293 0.8696294
vt 0.96215606 0.8517361
vt 0.9530833 0.7509762
vt 0.9521787 0.7707575
vt 0.9467292 0.76439005
vt 0.94721746 0.74343514
vt 0.9903705 0.9873176
vt 0.9903705 0.96890956
vt 0.98951674 0.7177268
vt 0.98583114 0.72569543
vt 0.9788029 0.6398838
vt 0.9858694 0.6398838
vt 0.97395205 0.87031245
vt 0.9749286 0.756258
vt 0.9674978 0.756258
vt 0.9701686 0.8707811
vt 0.9450833 0.77969277
vt 0.94602054 0.7733806
vt 0.96183383 0.731154
vt 0.9610068 0.7454265
vt 0.9852592 0.7300069
vt 0.9852592 0.74671775
vt 0.96308243 0.7069917
vt 0.97382665 0.70304424
vt 0.9751646 0.6948193
vt 0.96302867 0.68661493
vt 0.9581741 0.68149525
vt 0.95261145 0.6868277
vt 0.9524308 0.6754381
vt 0.97010106 0.87591827
vt 0.9931424 0.9225586
vt 0.97010106 0.9225586
vt 0.9585804 0.8721915
vt 0.9585804 0.9225586
vt 0.9470597 0.86846477
vt 0.9470597 0.9225586
vt 0.97073704 0.9378486
vt 0.9913054 0.9265507
vt 0.97012186 0.90689445
vt 0.9600714 0.92502326
vt 0.9594562 0.89677584
vt 0.94816315 0.91432893
vt 0.947548 0.8887886
vt 0.97058934 0.7621173
vt 0.9917851 0.81158
vt 0.9905547 0.8434101
vt 0.9702818 0.85904616
vt 0.95906866 0.7547678
vt 0.9549624 0.81880635
vt 0.9465714 0.7162063
vt 0.9440461 0.76386863
vt 0.9670251 0.8898977
vt 0.9927079 0.96548134
vt 0.9936307 0.9539695
vt 0.9704087 0.82228965
vt 0.9555044 0.8773486
vt 0.958888 0.81494015
vt 0.9473673 0.80759037
vt 0.9493469 0.87064165
vt 0.94398373 0.86479986
vt 0.97021717 0.7022494
vt 0.9896141 0.77145004
vt 0.9905907 0.78108156
vt 0.9671714 0.7745159
vt 0.9577199 0.70703626
vt 0.9576038 0.73075515
vt 0.95118535 0.7013534
vt 0.9518253 0.6821301
vt 0.94559485 0.67574406
vt 0.94571096 0.6562955
vt 0.97058934 0.79405814
vt 0.9858182 0.99164027
vt 0.9887479 0.9741025
vt 0.97010106 0.77305746
vt 0.95662725 0.77613944
vt 0.9585804 0.75824624
vt 0.95292544 0.7509762
vt 0.952021 0.7707575
vt 0.9465714 0.76439005
vt 0.9470597 0.74343514
vt 0.99021274 0.9873176
vt 0.9893589 0.7177268
vt 0.99021274 0.96890956
vt 0.98567337 0.72569543
vt 0.97864515 0.6398838
vt 0.9857117 0.6398838
vt 0.9786771 0.8620708
vt 0.97001076 0.8099455
vt 0.9737943 0.8094769
vt 0.96636355 0.7321027
vt 0.9737943 0.7321027
vn 0.44172174 0.00033939903 0.897152
vn 0.17797771 -0.024115572 0.983739
vn 0.34387824 -0.023513423 0.93871987
vn 0.29069838 -0.078836806 0.95356137
vn 0.2885442 -0.0038900839 0.95745873
vn 0.13741335 -0.013836466 0.99041724
vn -0.05762038 0.13445622 0.98924285
vn 0.28118435 0.035231575 0.9590068
vn -0.19582497 0.15483241 0.9683386
vn 0.09500847 -0.049251333 0.99425733
vn -0.05762038 0.13445622 0.98924285
vn 0.29069838 -0.078836806 0.95356137
vn 0.057693586 0.054194108 0.9968623
vn -0.068572566 0.046590097 0.99655765
vn 0.002608541 -0.021946818 0.9997557
vn -0.009103529 0.053045586 0.9985506
vn 0.027542328 0.15679486 0.9872471
vn 0.2105546 -0.05830646 0.97584176
vn 0.47434476 -0.18728638 0.86018646
vn 0.013062149 0.14155072 0.9898448
vn 0.09016089 -0.035768818 0.99528474
vn -0.008165274 0.12591796 0.992007
vn 0.00993487 -0.04299555 0.9990258
vn 0.24641567 0.024444416 0.968856
vn 0.027542328 0.15679486 0.9872471
vn 0.47434476 -0.18728638 0.86018646
vn 0.15267444 0.019598495 0.9880822
vn 0.013062149 0.14155072 0.9898448
vn 0.03340992 0.016170146 0.99931085
vn -0.008165274 0.12591796 0.992007
vn 0.06029422 0.044012763 0.99720985
vn 0.47434476 -0.18728638 0.86018646
vn -0.0980776 0.15979955 0.9822651
vn 0.24641567 0.024444416 0.968856
vn 0.0075468803 0.07052219 0.99748164
vn 0.15267444 0.019598495 0.9880822
vn -0.015701227 0.06928896 0.99747306
vn 0.03340992 0.016170146 0.99931085
vn 0.23512755 0.054144 0.9704552
vn -0.0980776 0.15979955 0.9822651
vn 0.3347016 -0.0015924405 0.94232285
vn 0.06029422 0.044012763 0.99720985
vn 0.20836268 0.005960415 0.9780335
vn 0.0075468803 0.07052219 0.99748164
vn -0.015701227 0.06928896 0.99747306
vn 0.0818685 -0.009297553 0.99659973
vn 0.015412387 -0.036455628 0.99921644
vn 0.068614595 0.028225346 0.9972439
vn 0.3347016 -0.0015924405 0.94232285
vn 0.14322291 0.019571709 0.98949695
vn 0.23512755 0.054144 0.9704552
vn -0.004300513 0.04070314 0.99916196
vn 0.20836268 0.005960415 0.9780335
vn 0.0818685 -0.009297553 0.99659973
vn -0.04825525 0.0013548399 0.9988341
vn 0.015412387 -0.036455628 0.99921644
vn -0.009927906 -0.013185488 0.99986374
vn -0.05762038 0.13445622 0.98924285
vn 0.14322291 0.019571709 0.98949695
vn -0.19582497 0.15483241 0.9683386
vn 0.068614595 0.028225346 0.9972439
vn 0.057693586 0.054194108 0.9968623
vn -0.004300513 0.04070314 0.99916196
vn -0.04825525 0.0013548399 0.9988341
vn -0.068572566 0.046590097 0.99655765
vn -0.009103529 0.053045586 0.9985506
vn -0.009927906 -0.013185488 0.99986374
vn 0.28118435 0.035231575 0.9590068
vn 0.44172174 0.00033939903 0.897152
vn 0.34387824 -0.023513423 0.93871987
vn 0.2885442 -0.0038900839 0.95745873
vn 0.13741335 -0.013836466 0.99041724
vn 0.38345194 -0.05094303 0.9221548
vn 0.17797771 -0.024115572 0.983739
vn 0.17243408 -0.061518226 0.9830982
vn 0.38345194 -0.05094303 0.9221548
vn 0.34387824 -0.023513423 0.93871987
vn -0.28820276 -0.09240901 0.95310014
vn -0.1427665 -0.019285658 0.98956853
vn -0.31175652 -0.016349008 0.9500214
vn 0.050791092 0.122156516 0.99121046
vn -0.27069935 0.023015544 0.9623888
vn 0.20157956 0.13305052 0.97039336
vn -0.10509149 -0.05615963 0.9928756
vn -0.28820276 -0.09240901 0.95310014
vn 0.050791092 0.122156516 0.99121046
vn -0.10676389 0.05253602 0.99289554
vn 0.031221608 0.051165495 0.9982021
vn 0.002608541 -0.021946818 0.9997557
vn -0.009103529 0.053045586 0.9985506
vn -0.06599559 0.097875305 0.993008
vn -0.39081526 -0.11713403 0.91298574
vn -0.20451942 -0.056270733 0.9772438
vn -0.03583284 0.11581981 0.9926237
vn -0.066161625 -0.031549722 0.99731004
vn -0.008165274 0.12591796 0.992007
vn 0.00993487 -0.04299555 0.9990258
vn -0.23997544 0.012015661 0.9707046
vn -0.39081526 -0.11713403 0.91298574
vn -0.06599559 0.097875305 0.993008
vn -0.1290173 0.004658416 0.99163145
vn -0.03583284 0.11581981 0.9926237
vn 0.03340992 0.016170146 0.99931085
vn -0.008165274 0.12591796 0.992007
vn 0.051017642 0.099294364 0.9937494
vn 0.22881252 0.19927919 0.95285505
vn -0.39081526 -0.11713403 0.91298574
vn -0.23997544 0.012015661 0.9707046
vn 0.025431711 0.14158979 0.98959863
vn -0.1290173 0.004658416 0.99163145
vn -0.015701227 0.06928896 0.99747306
vn 0.03340992 0.016170146 0.99931085
vn -0.16201973 0.08967643 0.98270434
vn -0.22341831 0.033865426 0.97413415
vn 0.22881252 0.19927919 0.95285505
vn 0.051017642 0.099294364 0.9937494
vn -0.20885406 0.01433358 0.97784173
vn 0.025431711 0.14158979 0.98959863
vn -0.015701227 0.06928896 0.99747306
vn -0.07180474 -0.006745382 0.9973959
vn 0.015412387 -0.036455628 0.99921644
vn -0.043707233 0.039785773 0.99825186
vn -0.12390737 0.01787837 0.9921327
vn -0.22341831 0.033865426 0.97413415
vn -0.16201973 0.08967643 0.98270434
vn 0.047923986 0.080723986 0.9955837
vn -0.20885406 0.01433358 0.97784173
vn -0.07180474 -0.006745382 0.9973959
vn 0.024157118 0.018918099 0.9995291
vn 0.015412387 -0.036455628 0.99921644
vn -0.009927906 -0.013185488 0.99986374
vn 0.050791092 0.122156516 0.99121046
vn 0.20157956 0.13305052 0.97039336
vn -0.12390737 0.01787837 0.9921327
vn -0.043707233 0.039785773 0.99825186
vn -0.10676389 0.05253602 0.99289554
vn 0.047923986 0.080723986 0.9955837
vn 0.024157118 0.018918099 0.9995291
vn 0.031221608 0.051165495 0.9982021
vn -0.009103529 0.053045586 0.9985506
vn -0.009927906 -0.013185488 0.99986374
vn -0.27069935 0.023015544 0.9623888
vn -0.33960444 -0.033914063 0.9399567
vn -0.44755307 -0.010203908 0.89419913
vn -0.31175652 -0.016349008 0.9500214
vn -0.1427665 -0.019285658 0.98956853
vn -0.4022373 -0.062111888 0.91342616
vn -0.44755307 -0.010203908 0.89419913
vn -0.33960444 -0.033914063 0.9399567
vn -0.16561419 -0.022737797 0.9859285
vn -0.4022373 -0.062111888 0.91342616
vn -0.16029234 -0.059206806 0.98529226
g banner_flag_0
f 3/3/3 2/2/2 1/1/1
f 6/6/6 5/5/5 4/4/4
f 5/5/5 7/7/7 4/4/4
f 5/5/5 8/8/8 7/7/7
f 8/8/8 9/9/9 7/7/7
f 12/12/12 11/11/11 10/10/10
f 11/11/11 13/13/13 10/10/10
f 10/10/10 13/13/13 14/14/14
f 10/10/10 14/14/14 15/15/15
f 14/14/14 16/16/16 15/15/15
f 19/19/19 18/18/18 17/17/17
f 17/17/17 18/18/18 20/20/20
f 18/18/18 21/21/21 20/20/20
f 20/20/20 21/21/21 22/22/22
f 21/21/21 23/23/23 22/22/22
f 26/26/26 25/25/25 24/24/24
f 24/24/24 25/25/25 27/27/27
f 25/25/25 28/28/28 27/27/27
f 27/27/27 28/28/28 29/29/29
f 28/28/28 30/30/30 29/29/29
f 33/33/33 32/32/32 31/31/31
f 32/32/32 34/34/34 31/31/31
f 31/31/31 34/34/34 35/35/35
f 34/34/34 36/36/36 35/35/35
f 35/35/35 36/36/36 37/37/37
f 36/36/36 38/38/38 37/37/37
f 41/41/41 40/40/40 39/39/39
f 40/40/40 42/42/42 39/39/39
f 39/39/39 42/42/42 43/43/43
f 42/42/42 44/44/44 43/43/43
f 43/43/43 44/44/44 45/45/45
f 46/46/46 43/43/43 45/45/45
f 46/46/46 45/45/45 47/47/47
f 50/50/50 49/49/49 48/48/48
f 49/49/49 51/51/51 48/48/48
f 48/48/48 51/51/51 52/52/52
f 51/51/51 53/53/53 52/52/52
f 52/52/52 53/53/53 54/54/54
f 55/55/55 52/52/52 54/54/54
f 54/54/54 56/56/56 55/55/55
f 56/56/56 57/57/57 55/55/55
f 60/60/60 59/59/59 58/58/58
f 59/59/59 61/61/61 58/58/58
f 58/58/58 61/61/61 62/62/62
f 61/61/61 63/63/63 62/62/62
f 62/62/62 63/63/63 64/64/64
f 65/65/65 62/62/62 64/64/64
f 65/65/65 64/64/64 66/66/66
f 64/64/64 67/67/67 66/66/66
f 70/70/70 69/69/69 68/68/68
f 71/71/71 70/70/70 68/68/68
f 71/71/71 72/72/72 70/70/70
f 72/72/72 73/73/73 70/70/70
f 76/76/76 75/75/75 74/74/74
f 77/77/77 76/76/76 74/74/74
f 80/80/80 79/79/79 78/78/78
f 81/81/81 80/80/80 78/78/78
f 82/82/82 80/80/80 81/81/81
f 83/83/83 82/82/82 81/81/81
f 86/86/86 85/85/85 84/84/84
f 87/87/87 86/86/86 84/84/84
f 87/87/87 84/84/84 88/88/88
f 88/88/88 84/84/84 89/89/89
f 90/90/90 88/88/88 89/89/89
f 93/93/93 92/92/92 91/91/91
f 93/93/93 91/91/91 94/94/94
f 95/95/95 93/93/93 94/94/94
f 95/95/95 94/94/94 96/96/96
f 97/97/97 95/95/95 96/96/96
f 100/100/100 99/99/99 98/98/98
f 100/100/100 98/98/98 101/101/101
f 102/102/102 100/100/100 101/101/101
f 102/102/102 101/101/101 103/103/103
f 104/104/104 102/102/102 103/103/103
f 107/107/107 106/106/106 105/105/105
f 108/108/108 107/107/107 105/105/105
f 108/108/108 105/105/105 109/109/109
f 110/110/110 108/108/108 109/109/109
f 110/110/110 109/109/109 111/111/111
f 112/112/112 110/110/110 111/111/111
f 115/115/115 114/114/114 113/113/113
f 116/116/116 115/115/115 113/113/113
f 116/116/116 113/113/113 117/117/117
f 118/118/118 116/116/116 117/117/117
f 118/118/118 117/117/117 119/119/119
f 117/117/117 120/120/120 119/119/119
f 119/119/119 120/120/120 121/121/121
f 124/124/124 123/123/123 122/122/122
f 125/125/125 124/124/124 122/122/122
f 125/125/125 122/122/122 126/126/126
f 127/127/127 125/125/125 126/126/126
f 127/127/127 126/126/126 128/128/128
f 126/126/126 129/129/129 128/128/128
f 130/130/130 128/128/128 129/129/129
f 131/131/131 130/130/130 129/129/129
f 134/134/134 133/133/133 132/132/132
f 135/135/135 134/134/134 132/132/132
f 135/135/135 132/132/132 136/136/136
f 137/137/137 135/135/135 136/136/136
f 137/137/137 136/136/136 138/138/138
f 136/136/136 139/139/139 138/138/138
f 138/138/138 139/139/139 140/140/140
f 141/141/141 138/138/138 140/140/140
f 144/144/144 143/143/143 142/142/142
f 143/143/143 145/145/145 142/142/142
f 146/146/146 145/145/145 143/143/143
f 147/147/147 146/146/146 143/143/143
f 150/150/150 149/149/149 148/148/148
f 151/151/151 149/149/149 150/150/150
f 152/152/152 151/151/151 150/150/150
