g mergedBlocks
v -0.7800728 0 -0.4503753
v -0.7800728 0.06499999 -0.4503753
v -0.7800728 0 0.4503753
v -0.7800728 0.06499999 0.4503753
v -0.7800728 0 -0.4503753
v -2.083436E-13 0 -0.90075046
v -0.7800728 0.06499999 -0.4503753
v -2.083436E-13 0.06499999 -0.90075046
v -0.7800728 0.06499999 -0.4503753
v -0.65 0.325 -0.3752777
v -0.7800728 0.06499999 0.4503753
v -0.65 0.325 0.3752777
v 1.8863538E-13 0.06499999 0.90075046
v -0.7800728 0.06499999 0.4503753
v 1.5391148E-13 0.325 0.7505552
v -0.65 0.325 0.3752777
v 0.7800728 0.06499999 0.4503753
v 1.8863538E-13 0.06499999 0.90075046
v 0.65 0.325 0.3752777
v 1.5391148E-13 0.325 0.7505552
v -0.7800728 0.06499999 -0.4503753
v -2.083436E-13 0.06499999 -0.90075046
v -0.65 0.325 -0.3752777
v -1.7549669E-13 0.325 -0.7505552
v 0.7800728 0 0.4503753
v 1.8863538E-13 0 0.90075046
v 0.7800728 0.06499999 0.4503753
v 1.8863538E-13 0.06499999 0.90075046
v 0.7800728 0.06499999 -0.4503753
v 0.7800728 0.06499999 0.4503753
v 0.65 0.325 -0.3752777
v 0.65 0.325 0.3752777
v -2.083436E-13 0 -0.90075046
v 0.7800728 0 -0.4503753
v -2.083436E-13 0.06499999 -0.90075046
v 0.7800728 0.06499999 -0.4503753
v 1.8863538E-13 0 0.90075046
v -0.7800728 0 0.4503753
v 1.8863538E-13 0.06499999 0.90075046
v -0.7800728 0.06499999 0.4503753
v 0.7800728 0.06499999 -0.4503753
v 0.7800728 0 -0.4503753
v 0.7800728 0.06499999 0.4503753
v 0.7800728 0 0.4503753
v -2.083436E-13 0.06499999 -0.90075046
v 0.7800728 0.06499999 -0.4503753
v -1.7549669E-13 0.325 -0.7505552
v 0.65 0.325 -0.3752777
v -1.7549669E-13 0.325 -0.7505552
v -1.7549669E-13 0.65 -0.7505552
v -0.65 0.325 -0.3752777
v -0.65 0.65 -0.3752777
v 0.65 0.65 0.3752777
v 1.557885E-13 0.65 0.7505552
v 0.65 0.65 -0.3752777
v -1.7549669E-13 0.65 -0.7505552
v -0.65 0.65 0.3752777
v -0.65 0.65 -0.3752777
v 0.65 0.65 -0.3752777
v 0.65 0.325 -0.3752777
v 0.65 0.65 0.3752777
v 0.65 0.325 0.3752777
v 0.65 0.325 0.3752777
v 1.5391148E-13 0.325 0.7505552
v 0.65 0.65 0.3752777
v 1.557885E-13 0.65 0.7505552
v -0.65 0.325 -0.3752777
v -0.65 0.65 -0.3752777
v -0.65 0.325 0.3752777
v -0.65 0.65 0.3752777
v -1.7549669E-13 0.325 -0.7505552
v 0.65 0.325 -0.3752777
v -1.7549669E-13 0.65 -0.7505552
v 0.65 0.65 -0.3752777
v 0.7800728 0 0.4503753
v 0.7800728 0 -0.4503753
v 1.8863538E-13 0 0.90075046
v -2.083436E-13 0 -0.90075046
v -0.7800728 0 0.4503753
v -0.7800728 0 -0.4503753
v 1.5391148E-13 0.325 0.7505552
v -0.65 0.325 0.3752777
v 1.557885E-13 0.65 0.7505552
v -0.65 0.65 0.3752777
v 0.7800728 0.56500006 0.4503753
v 1.8910469E-13 0.56500006 0.90075046
v 0.7800728 0.56500006 -0.4503753
v -2.083436E-13 0.56500006 -0.90075046
v -0.7800728 0.56500006 0.4503753
v -0.7800728 0.56500006 -0.4503753
v -2.083436E-13 0.37000006 -0.90075046
v 0.7800728 0.37000006 -0.4503753
v -2.083436E-13 0.56500006 -0.90075046
v 0.7800728 0.56500006 -0.4503753
v 0.7800728 0.56500006 -0.4503753
v 0.7800728 0.37000006 -0.4503753
v 0.7800728 0.56500006 0.4503753
v 0.7800728 0.37000006 0.4503753
v 0.7800728 0.37000006 0.4503753
v 1.8910469E-13 0.37000006 0.90075046
v 0.7800728 0.56500006 0.4503753
v 1.8910469E-13 0.56500006 0.90075046
v 1.8910469E-13 0.37000006 0.90075046
v -0.7800728 0.37000006 0.4503753
v 1.8910469E-13 0.56500006 0.90075046
v -0.7800728 0.56500006 0.4503753
v -0.7800728 0.37000006 -0.4503753
v -0.7800728 0.56500006 -0.4503753
v -0.7800728 0.37000006 0.4503753
v -0.7800728 0.56500006 0.4503753
v -0.7800728 0.37000006 -0.4503753
v -2.083436E-13 0.37000006 -0.90075046
v -0.7800728 0.56500006 -0.4503753
v -2.083436E-13 0.56500006 -0.90075046
v 0.7800728 0.37000006 0.4503753
v 0.7800728 0.37000006 -0.4503753
v 1.8910469E-13 0.37000006 0.90075046
v -2.083436E-13 0.37000006 -0.90075046
v -0.7800728 0.37000006 0.4503753
v -0.7800728 0.37000006 -0.4503753
vt 0.1875 0.0625
vt 0.1875 0.0625
vt 0.1875 0.0625
vt 0.1875 0.0625
vt 0.1875 0.0625
vt 0.1875 0.0625
vt 0.1875 0.0625
vt 0.1875 0.0625
vt 0.1875 0.0625
vt 0.1875 0.0625
vt 0.1875 0.0625
vt 0.1875 0.0625
vt 0.1875 0.0625
vt 0.1875 0.0625
vt 0.1875 0.0625
vt 0.1875 0.0625
vt 0.1875 0.0625
vt 0.1875 0.0625
vt 0.1875 0.0625
vt 0.1875 0.0625
vt 0.1875 0.0625
vt 0.1875 0.0625
vt 0.1875 0.0625
vt 0.1875 0.0625
vt 0.1875 0.0625
vt 0.1875 0.0625
vt 0.1875 0.0625
vt 0.1875 0.0625
vt 0.1875 0.0625
vt 0.1875 0.0625
vt 0.1875 0.0625
vt 0.1875 0.0625
vt 0.1875 0.0625
vt 0.1875 0.0625
vt 0.1875 0.0625
vt 0.1875 0.0625
vt 0.1875 0.0625
vt 0.1875 0.0625
vt 0.1875 0.0625
vt 0.1875 0.0625
vt 0.1875 0.0625
vt 0.1875 0.0625
vt 0.1875 0.0625
vt 0.1875 0.0625
vt 0.1875 0.0625
vt 0.1875 0.0625
vt 0.1875 0.0625
vt 0.1875 0.0625
vt 0.0625 0.0625
vt 0.0625 0.0625
vt 0.0625 0.0625
vt 0.0625 0.0625
vt 0.0625 0.0625
vt 0.0625 0.0625
vt 0.0625 0.0625
vt 0.0625 0.0625
vt 0.0625 0.0625
vt 0.0625 0.0625
vt 0.0625 0.0625
vt 0.0625 0.0625
vt 0.0625 0.0625
vt 0.0625 0.0625
vt 0.0625 0.0625
vt 0.0625 0.0625
vt 0.0625 0.0625
vt 0.0625 0.0625
vt 0.0625 0.0625
vt 0.0625 0.0625
vt 0.0625 0.0625
vt 0.0625 0.0625
vt 0.0625 0.0625
vt 0.0625 0.0625
vt 0.0625 0.0625
vt 0.0625 0.0625
vt 0.0625 0.0625
vt 0.0625 0.0625
vt 0.0625 0.0625
vt 0.0625 0.0625
vt 0.0625 0.0625
vt 0.0625 0.0625
vt 0.0625 0.0625
vt 0.0625 0.0625
vt 0.0625 0.0625
vt 0.0625 0.0625
vt 0.3125 0.0625
vt 0.3125 0.0625
vt 0.3125 0.0625
vt 0.3125 0.0625
vt 0.3125 0.0625
vt 0.3125 0.0625
vt 0.3125 0.0625
vt 0.3125 0.0625
vt 0.3125 0.0625
vt 0.3125 0.0625
vt 0.3125 0.0625
vt 0.3125 0.0625
vt 0.3125 0.0625
vt 0.3125 0.0625
vt 0.3125 0.0625
vt 0.3125 0.0625
vt 0.3125 0.0625
vt 0.3125 0.0625
vt 0.3125 0.0625
vt 0.3125 0.0625
vt 0.3125 0.0625
vt 0.3125 0.0625
vt 0.3125 0.0625
vt 0.3125 0.0625
vt 0.3125 0.0625
vt 0.3125 0.0625
vt 0.3125 0.0625
vt 0.3125 0.0625
vt 0.3125 0.0625
vt 0.3125 0.0625
vt 0.3125 0.0625
vt 0.3125 0.0625
vt 0.3125 0.0625
vt 0.3125 0.0625
vt 0.3125 0.0625
vt 0.3125 0.0625
vn -1 0 0
vn -1 0 0
vn -1 0 0
vn -1 0 0
vn -0.50000006 0 -0.86602545
vn -0.50000006 0 -0.86602545
vn -0.50000006 0 -0.86602545
vn -0.50000006 0 -0.86602545
vn -0.89432687 0.44741413 0
vn -0.89432687 0.44741413 0
vn -0.89432687 0.44741413 0
vn -0.89432687 0.44741413 0
vn -0.4471634 0.44741413 0.77450985
vn -0.4471634 0.44741413 0.77450985
vn -0.4471634 0.44741413 0.77450985
vn -0.4471634 0.44741413 0.77450985
vn 0.4471634 0.44741413 0.77450985
vn 0.4471634 0.44741413 0.77450985
vn 0.4471634 0.44741413 0.77450985
vn 0.4471634 0.44741413 0.77450985
vn -0.4471634 0.44741413 -0.77450985
vn -0.4471634 0.44741413 -0.77450985
vn -0.4471634 0.44741413 -0.77450985
vn -0.4471634 0.44741413 -0.77450985
vn 0.50000006 0 0.86602545
vn 0.50000006 0 0.86602545
vn 0.50000006 0 0.86602545
vn 0.50000006 0 0.86602545
vn 0.89432687 0.44741413 0
vn 0.89432687 0.44741413 0
vn 0.89432687 0.44741413 0
vn 0.89432687 0.44741413 0
vn 0.50000006 0 -0.86602545
vn 0.50000006 0 -0.86602545
vn 0.50000006 0 -0.86602545
vn 0.50000006 0 -0.86602545
vn -0.50000006 0 0.86602545
vn -0.50000006 0 0.86602545
vn -0.50000006 0 0.86602545
vn -0.50000006 0 0.86602545
vn 1 0 0
vn 1 0 0
vn 1 0 0
vn 1 0 0
vn 0.4471634 0.44741413 -0.77450985
vn 0.4471634 0.44741413 -0.77450985
vn 0.4471634 0.44741413 -0.77450985
vn 0.4471634 0.44741413 -0.77450985
vn -0.50000006 0 -0.86602545
vn -0.50000006 0 -0.86602545
vn -0.50000006 0 -0.86602545
vn -0.50000006 0 -0.86602545
vn -0 1 0
vn -0 1 0
vn -0 1 0
vn -0 1 0
vn -0 1 0
vn -0 1 0
vn 1 0 0
vn 1 0 0
vn 1 0 0
vn 1 0 0
vn 0.50000006 0 0.86602545
vn 0.50000006 0 0.86602545
vn 0.50000006 0 0.86602545
vn 0.50000006 0 0.86602545
vn -1 0 0
vn -1 0 0
vn -1 0 0
vn -1 0 0
vn 0.50000006 0 -0.86602545
vn 0.50000006 0 -0.86602545
vn 0.50000006 0 -0.86602545
vn 0.50000006 0 -0.86602545
vn -0 -1 0
vn -0 -1 0
vn -0 -1 0
vn -0 -1 0
vn -0 -1 0
vn -0 -1 0
vn -0.50000006 0 0.86602545
vn -0.50000006 0 0.86602545
vn -0.50000006 0 0.86602545
vn -0.50000006 0 0.86602545
vn -0 1 0
vn -0 1 0
vn -0 1 0
vn -0 1 0
vn -0 1 0
vn -0 1 0
vn 0.50000006 0 -0.86602545
vn 0.50000006 0 -0.86602545
vn 0.50000006 0 -0.86602545
vn 0.50000006 0 -0.86602545
vn 1 0 0
vn 1 0 0
vn 1 0 0
vn 1 0 0
vn 0.50000006 0 0.86602545
vn 0.50000006 0 0.86602545
vn 0.50000006 0 0.86602545
vn 0.50000006 0 0.86602545
vn -0.50000006 0 0.86602545
vn -0.50000006 0 0.86602545
vn -0.50000006 0 0.86602545
vn -0.50000006 0 0.86602545
vn -1 0 0
vn -1 0 0
vn -1 0 0
vn -1 0 0
vn -0.50000006 0 -0.86602545
vn -0.50000006 0 -0.86602545
vn -0.50000006 0 -0.86602545
vn -0.50000006 0 -0.86602545
vn -0 -1 0
vn -0 -1 0
vn -0 -1 0
vn -0 -1 0
vn -0 -1 0
vn -0 -1 0
g mergedBlocks_0
f 3/3/3 2/2/2 1/1/1
f 2/2/2 3/3/3 4/4/4
f 7/7/7 6/6/6 5/5/5
f 6/6/6 7/7/7 8/8/8
f 11/11/11 10/10/10 9/9/9
f 10/10/10 11/11/11 12/12/12
f 15/15/15 14/14/14 13/13/13
f 14/14/14 15/15/15 16/16/16
f 19/19/19 18/18/18 17/17/17
f 18/18/18 19/19/19 20/20/20
f 23/23/23 22/22/22 21/21/21
f 22/22/22 23/23/23 24/24/24
f 27/27/27 26/26/26 25/25/25
f 26/26/26 27/27/27 28/28/28
f 31/31/31 30/30/30 29/29/29
f 30/30/30 31/31/31 32/32/32
f 35/35/35 34/34/34 33/33/33
f 34/34/34 35/35/35 36/36/36
f 39/39/39 38/38/38 37/37/37
f 38/38/38 39/39/39 40/40/40
f 43/43/43 42/42/42 41/41/41
f 42/42/42 43/43/43 44/44/44
f 47/47/47 46/46/46 45/45/45
f 46/46/46 47/47/47 48/48/48
f 51/51/51 50/50/50 49/49/49
f 50/50/50 51/51/51 52/52/52
f 55/55/55 54/54/54 53/53/53
f 54/54/54 55/55/55 56/56/56
f 54/54/54 56/56/56 57/57/57
f 57/57/57 56/56/56 58/58/58
f 61/61/61 60/60/60 59/59/59
f 60/60/60 61/61/61 62/62/62
f 65/65/65 64/64/64 63/63/63
f 64/64/64 65/65/65 66/66/66
f 69/69/69 68/68/68 67/67/67
f 68/68/68 69/69/69 70/70/70
f 73/73/73 72/72/72 71/71/71
f 72/72/72 73/73/73 74/74/74
f 77/77/77 76/76/76 75/75/75
f 76/76/76 77/77/77 78/78/78
f 78/78/78 77/77/77 79/79/79
f 78/78/78 79/79/79 80/80/80
f 83/83/83 82/82/82 81/81/81
f 82/82/82 83/83/83 84/84/84
f 87/87/87 86/86/86 85/85/85
f 86/86/86 87/87/87 88/88/88
f 86/86/86 88/88/88 89/89/89
f 89/89/89 88/88/88 90/90/90
f 93/93/93 92/92/92 91/91/91
f 92/92/92 93/93/93 94/94/94
f 97/97/97 96/96/96 95/95/95
f 96/96/96 97/97/97 98/98/98
f 101/101/101 100/100/100 99/99/99
f 100/100/100 101/101/101 102/102/102
f 105/105/105 104/104/104 103/103/103
f 104/104/104 105/105/105 106/106/106
f 109/109/109 108/108/108 107/107/107
f 108/108/108 109/109/109 110/110/110
f 113/113/113 112/112/112 111/111/111
f 112/112/112 113/113/113 114/114/114
f 117/117/117 116/116/116 115/115/115
f 116/116/116 117/117/117 118/118/118
f 118/118/118 117/117/117 119/119/119
f 118/118/118 119/119/119 120/120/120
