g mergedBlocks
v 0.19999999 0 0.39999998
v 0.19999999 0 -0.29999998
v 0.099999994 3.3839598E-17 0.39999998
v -0.19999999 0 -0.29999998
v -0.099999994 8.4598984E-17 0.39999998
v -0.19999999 0 0.39999998
v -0.19999999 0.099999994 -0.29999998
v -0.19999999 0.19999999 -0.29999998
v -0.19999999 0.099999994 -0.19999999
v -0.19999999 0.19999999 -0.19999999
v 0.19999999 0.19999999 -0.29999998
v 0.19999999 0.19999999 -0.19999999
v -0.19999999 0.19999999 -0.29999998
v -0.19999999 0.19999999 -0.19999999
v 0.19999999 0.19999999 -0.099999994
v 0.19999999 0.099999994 -0.099999994
v 0.19999999 0.19999999 0.099999994
v 0.19999999 0.099999994 0.099999994
v 0.19999999 0.19999999 -0.29999998
v 0.19999999 0.099999994 -0.29999998
v 0.19999999 0.19999999 -0.19999999
v 0.19999999 0.099999994 -0.19999999
v -0.19999999 0.099999994 -0.099999994
v -0.19999999 0.19999999 -0.099999994
v -0.19999999 0.099999994 0.099999994
v -0.19999999 0.19999999 0.099999994
v -0.19999999 0.099999994 0.19999999
v -0.19999999 0.19999999 0.19999999
v -0.19999999 0.099999994 0.34999996
v -0.19999999 0.19999999 0.29999998
v 0.19999999 0.19999999 0.19999999
v 0.19999999 0.099999994 0.19999999
v 0.19999999 0.19999999 0.29999998
v 0.19999999 0.099999994 0.34999996
v 0.19999999 0 0.39999998
v 0.099999994 3.3839598E-17 0.39999998
v 0.19999999 0.099999994 0.34999996
v 0.099999994 0.19999999 0.29999998
v 0.19999999 0.19999999 0.29999998
v -0.19999999 0 0.39999998
v -0.19999999 0.099999994 0.34999996
v -0.099999994 8.4598984E-17 0.39999998
v -0.099999994 0.19999999 0.29999998
v -0.19999999 0.19999999 0.29999998
v 0.14999999 0.29999998 -0.19999999
v 0.19999999 0.19999999 -0.19999999
v 0.14999999 0.29999998 0.1727904
v 0.19999999 0.19999999 -0.099999994
v 0.19999999 0.19999999 0.099999994
v 0.19999999 0.19999999 0.19999999
v 0.14999999 0.29999998 0.24999999
v 0.19999999 0.19999999 0.29999998
v -0.19999999 0 -0.29999998
v 0.19999999 0 -0.29999998
v -0.19999999 0.099999994 -0.29999998
v 0.19999999 0.099999994 -0.29999998
v -0.19999999 0.19999999 -0.29999998
v 0.19999999 0.19999999 -0.29999998
v -0.19999999 0.19999999 -0.19999999
v 0.19999999 0.19999999 -0.19999999
v -0.14999999 0.29999998 -0.19999999
v 0.14999999 0.29999998 -0.19999999
v 0.14999999 0.29999998 -0.19999999
v 0.14999999 0.29999998 0.1727904
v -0.14999999 0.29999998 -0.19999999
v 0.14999999 0.29999998 0.24999999
v -0.14999999 0.29999998 0.24999999
v -0.19999999 0.19999999 -0.19999999
v -0.14999999 0.29999998 -0.19999999
v -0.19999999 0.19999999 -0.099999994
v -0.14999999 0.29999998 0.24999999
v -0.19999999 0.19999999 0.099999994
v -0.19999999 0.19999999 0.19999999
v -0.19999999 0.19999999 0.29999998
v 0.19999999 0.19999999 0.29999998
v 0.099999994 0.19999999 0.29999998
v 0.14999999 0.29999998 0.24999999
v -0.099999994 0.19999999 0.29999998
v -0.19999999 0.19999999 0.29999998
v -0.14999999 0.29999998 0.24999999
v -0.099999994 8.4598984E-17 0.39999998
v 0.099999994 3.3839598E-17 0.39999998
v -0.29999998 0 -0.39999998
v -0.29999998 0.099999994 -0.39999998
v -0.29999998 0 0.39999998
v -0.29999998 0.099999994 -0.19999999
v -0.29999998 0.099999994 -0.099999994
v -0.29999998 0.099999994 0.099999994
v -0.29999998 0.099999994 0.19999999
v -0.29999998 0.099999994 0.34999996
v -0.29999998 0.14472139 0.43944266
v -0.29999998 0.044721358 0.48944265
v -0.19999999 0.099999994 -0.39999998
v -0.19999999 0 -0.39999998
v -0.19999999 0.099999994 -0.29999998
v -0.19999999 0 -0.29999998
v -0.29999998 0.099999994 -0.19999999
v -0.19999999 0.099999994 -0.19999999
v -0.24999999 0.19999999 -0.19999999
v -0.19999999 0.19999999 -0.19999999
v 0.29999998 0.099999994 0.19999999
v 0.19999999 0.099999994 0.19999999
v 0.24999999 0.19999999 0.19999999
v 0.19999999 0.19999999 0.19999999
v 0.29999998 0.099999994 -0.099999994
v 0.29999998 0.099999994 0.099999994
v 0.19999999 0.099999994 -0.099999994
v 0.19999999 0.099999994 0.099999994
v 0.19999999 0 -0.39999998
v 0.19999999 0.099999994 -0.39999998
v 0.19999999 0 -0.29999998
v 0.19999999 0.099999994 -0.29999998
v 0.29999998 0 0.39999998
v 0.29999998 0 -0.39999998
v 0.19999999 0 0.39999998
v 0.19999999 0 -0.29999998
v 0.19999999 0 -0.39999998
v -0.19999999 0.099999994 -0.099999994
v -0.29999998 0.099999994 -0.099999994
v -0.19999999 0.19999999 -0.099999994
v -0.24999999 0.19999999 -0.099999994
v -0.19999999 0.099999994 0.19999999
v -0.19999999 0.099999994 0.34999996
v -0.29999998 0.099999994 0.19999999
v -0.29999998 0.099999994 0.34999996
v -0.19999999 0.19999999 0.099999994
v -0.19999999 0.19999999 0.19999999
v -0.24999999 0.19999999 0.099999994
v -0.24999999 0.19999999 0.19999999
v -0.29999998 0.099999994 -0.19999999
v -0.24999999 0.19999999 -0.19999999
v -0.29999998 0.099999994 -0.099999994
v -0.24999999 0.19999999 -0.099999994
v -0.19999999 0 0.39999998
v -0.19999999 0 -0.29999998
v -0.29999998 0 0.39999998
v -0.19999999 0 -0.39999998
v -0.29999998 0 -0.39999998
v -0.29999998 0.099999994 0.099999994
v -0.19999999 0.099999994 0.099999994
v -0.24999999 0.19999999 0.099999994
v -0.19999999 0.19999999 0.099999994
v -0.19999999 0.19999999 -0.19999999
v -0.19999999 0.19999999 -0.099999994
v -0.24999999 0.19999999 -0.19999999
v -0.24999999 0.19999999 -0.099999994
v -0.19999999 0.099999994 0.19999999
v -0.29999998 0.099999994 0.19999999
v -0.19999999 0.19999999 0.19999999
v -0.24999999 0.19999999 0.19999999
v -0.19999999 0.099999994 -0.099999994
v -0.19999999 0.099999994 0.099999994
v -0.29999998 0.099999994 -0.099999994
v -0.29999998 0.099999994 0.099999994
v -0.29999998 0 -0.39999998
v -0.19999999 0 -0.39999998
v -0.29999998 0.099999994 -0.39999998
v -0.19999999 0.099999994 -0.39999998
v -0.19999999 0.099999994 -0.39999998
v -0.19999999 0.099999994 -0.29999998
v -0.29999998 0.099999994 -0.39999998
v -0.19999999 0.099999994 -0.19999999
v -0.29999998 0.099999994 -0.19999999
v -0.29999998 0.099999994 0.099999994
v -0.24999999 0.19999999 0.099999994
v -0.29999998 0.099999994 0.19999999
v -0.24999999 0.19999999 0.19999999
v 0.29999998 0.099999994 -0.39999998
v 0.29999998 0.099999994 -0.19999999
v 0.19999999 0.099999994 -0.39999998
v 0.19999999 0.099999994 -0.19999999
v 0.19999999 0.099999994 -0.29999998
v 0.19999999 0.099999994 0.099999994
v 0.29999998 0.099999994 0.099999994
v 0.19999999 0.19999999 0.099999994
v 0.24999999 0.19999999 0.099999994
v 0.24999999 0.19999999 -0.19999999
v 0.24999999 0.19999999 -0.099999994
v 0.19999999 0.19999999 -0.19999999
v 0.19999999 0.19999999 -0.099999994
v 0.29999998 0.099999994 -0.099999994
v 0.19999999 0.099999994 -0.099999994
v 0.24999999 0.19999999 -0.099999994
v 0.19999999 0.19999999 -0.099999994
v 0.24999999 0.19999999 -0.19999999
v 0.29999998 0.099999994 -0.19999999
v 0.24999999 0.19999999 -0.099999994
v 0.29999998 0.099999994 -0.099999994
v 0.24999999 0.19999999 0.099999994
v 0.29999998 0.099999994 0.099999994
v 0.24999999 0.19999999 0.19999999
v 0.29999998 0.099999994 0.19999999
v 0.24999999 0.19999999 0.099999994
v 0.24999999 0.19999999 0.19999999
v 0.19999999 0.19999999 0.099999994
v 0.19999999 0.19999999 0.19999999
v 0.19999999 0.099999994 -0.19999999
v 0.29999998 0.099999994 -0.19999999
v 0.19999999 0.19999999 -0.19999999
v 0.24999999 0.19999999 -0.19999999
v 0.29999998 0.099999994 0.19999999
v 0.29999998 0.099999994 0.34999996
v 0.19999999 0.099999994 0.19999999
v 0.19999999 0.099999994 0.34999996
v 0.19999999 0 -0.39999998
v 0.29999998 0 -0.39999998
v 0.19999999 0.099999994 -0.39999998
v 0.29999998 0.099999994 -0.39999998
v 0.29999998 0.099999994 -0.39999998
v 0.29999998 0 -0.39999998
v 0.29999998 0.099999994 -0.19999999
v 0.29999998 0 0.39999998
v 0.29999998 0.099999994 -0.099999994
v 0.29999998 0.099999994 0.099999994
v 0.29999998 0.099999994 0.19999999
v 0.29999998 0.099999994 0.34999996
v 0.29999998 0.14472139 0.43944266
v 0.29999998 0.044721358 0.48944265
v -0.19999999 0.044721358 0.48944265
v -0.29999998 0.044721358 0.48944265
v -0.19999999 0.14472139 0.43944266
v -0.29999998 0.14472139 0.43944266
v -0.19999999 0.044721358 0.48944265
v -0.19999999 0 0.39999998
v -0.29999998 0.044721358 0.48944265
v -0.29999998 0 0.39999998
v -0.19999999 0.099999994 0.34999996
v -0.19999999 0 0.39999998
v -0.19999999 0.14472139 0.43944266
v -0.19999999 0.044721358 0.48944265
v -0.19999999 0.099999994 0.34999996
v -0.19999999 0.14472139 0.43944266
v -0.29999998 0.099999994 0.34999996
v -0.29999998 0.14472139 0.43944266
v 0.29999998 0.044721358 0.48944265
v 0.19999999 0.044721358 0.48944265
v 0.29999998 0.14472139 0.43944266
v 0.19999999 0.14472139 0.43944266
v 0.29999998 0.099999994 0.34999996
v 0.29999998 0.14472139 0.43944266
v 0.19999999 0.099999994 0.34999996
v 0.19999999 0.14472139 0.43944266
v 0.19999999 0.099999994 0.34999996
v 0.19999999 0.14472139 0.43944266
v 0.19999999 0 0.39999998
v 0.19999999 0.044721358 0.48944265
v 0.29999998 0.044721358 0.48944265
v 0.29999998 0 0.39999998
v 0.19999999 0.044721358 0.48944265
v 0.19999999 0 0.39999998
vt 0.3125 0.0625
vt 0.3125 0.0625
vt 0.3125 0.0625
vt 0.3125 0.0625
vt 0.3125 0.0625
vt 0.3125 0.0625
vt 0.3125 0.0625
vt 0.3125 0.0625
vt 0.3125 0.0625
vt 0.3125 0.0625
vt 0.3125 0.0625
vt 0.3125 0.0625
vt 0.3125 0.0625
vt 0.3125 0.0625
vt 0.3125 0.0625
vt 0.3125 0.0625
vt 0.3125 0.0625
vt 0.3125 0.0625
vt 0.3125 0.0625
vt 0.3125 0.0625
vt 0.3125 0.0625
vt 0.3125 0.0625
vt 0.3125 0.0625
vt 0.3125 0.0625
vt 0.3125 0.0625
vt 0.3125 0.0625
vt 0.3125 0.0625
vt 0.3125 0.0625
vt 0.3125 0.0625
vt 0.3125 0.0625
vt 0.3125 0.0625
vt 0.3125 0.0625
vt 0.3125 0.0625
vt 0.3125 0.0625
vt 0.3125 0.0625
vt 0.3125 0.0625
vt 0.3125 0.0625
vt 0.3125 0.0625
vt 0.3125 0.0625
vt 0.3125 0.0625
vt 0.3125 0.0625
vt 0.3125 0.0625
vt 0.3125 0.0625
vt 0.3125 0.0625
vt 0.1875 0.0625
vt 0.1875 0.0625
vt 0.1875 0.0625
vt 0.1875 0.0625
vt 0.1875 0.0625
vt 0.1875 0.0625
vt 0.1875 0.0625
vt 0.1875 0.0625
vt 0.1875 0.0625
vt 0.1875 0.0625
vt 0.1875 0.0625
vt 0.1875 0.0625
vt 0.1875 0.0625
vt 0.1875 0.0625
vt 0.1875 0.0625
vt 0.1875 0.0625
vt 0.1875 0.0625
vt 0.1875 0.0625
vt 0.1875 0.0625
vt 0.1875 0.0625
vt 0.1875 0.0625
vt 0.1875 0.0625
vt 0.1875 0.0625
vt 0.1875 0.0625
vt 0.1875 0.0625
vt 0.1875 0.0625
vt 0.1875 0.0625
vt 0.1875 0.0625
vt 0.1875 0.0625
vt 0.1875 0.0625
vt 0.1875 0.0625
vt 0.1875 0.0625
vt 0.1875 0.0625
vt 0.1875 0.0625
vt 0.1875 0.0625
vt 0.1875 0.0625
vt 0.1875 0.0625
vt 0.1875 0.0625
vt 0.0625 0.0625
vt 0.0625 0.0625
vt 0.0625 0.0625
vt 0.0625 0.0625
vt 0.0625 0.0625
vt 0.0625 0.0625
vt 0.0625 0.0625
vt 0.0625 0.0625
vt 0.0625 0.0625
vt 0.0625 0.0625
vt 0.0625 0.0625
vt 0.0625 0.0625
vt 0.0625 0.0625
vt 0.0625 0.0625
vt 0.0625 0.0625
vt 0.0625 0.0625
vt 0.0625 0.0625
vt 0.0625 0.0625
vt 0.0625 0.0625
vt 0.0625 0.0625
vt 0.0625 0.0625
vt 0.0625 0.0625
vt 0.0625 0.0625
vt 0.0625 0.0625
vt 0.0625 0.0625
vt 0.0625 0.0625
vt 0.0625 0.0625
vt 0.0625 0.0625
vt 0.0625 0.0625
vt 0.0625 0.0625
vt 0.0625 0.0625
vt 0.0625 0.0625
vt 0.0625 0.0625
vt 0.0625 0.0625
vt 0.0625 0.0625
vt 0.0625 0.0625
vt 0.0625 0.0625
vt 0.0625 0.0625
vt 0.0625 0.0625
vt 0.0625 0.0625
vt 0.0625 0.0625
vt 0.0625 0.0625
vt 0.0625 0.0625
vt 0.0625 0.0625
vt 0.0625 0.0625
vt 0.0625 0.0625
vt 0.0625 0.0625
vt 0.0625 0.0625
vt 0.0625 0.0625
vt 0.0625 0.0625
vt 0.0625 0.0625
vt 0.0625 0.0625
vt 0.0625 0.0625
vt 0.0625 0.0625
vt 0.0625 0.0625
vt 0.0625 0.0625
vt 0.0625 0.0625
vt 0.0625 0.0625
vt 0.0625 0.0625
vt 0.0625 0.0625
vt 0.0625 0.0625
vt 0.0625 0.0625
vt 0.0625 0.0625
vt 0.0625 0.0625
vt 0.0625 0.0625
vt 0.0625 0.0625
vt 0.0625 0.0625
vt 0.0625 0.0625
vt 0.0625 0.0625
vt 0.0625 0.0625
vt 0.0625 0.0625
vt 0.0625 0.0625
vt 0.0625 0.0625
vt 0.0625 0.0625
vt 0.0625 0.0625
vt 0.0625 0.0625
vt 0.0625 0.0625
vt 0.0625 0.0625
vt 0.0625 0.0625
vt 0.0625 0.0625
vt 0.0625 0.0625
vt 0.0625 0.0625
vt 0.0625 0.0625
vt 0.0625 0.0625
vt 0.0625 0.0625
vt 0.0625 0.0625
vt 0.0625 0.0625
vt 0.0625 0.0625
vt 0.0625 0.0625
vt 0.0625 0.0625
vt 0.0625 0.0625
vt 0.0625 0.0625
vt 0.0625 0.0625
vt 0.0625 0.0625
vt 0.0625 0.0625
vt 0.0625 0.0625
vt 0.0625 0.0625
vt 0.0625 0.0625
vt 0.0625 0.0625
vt 0.0625 0.0625
vt 0.0625 0.0625
vt 0.0625 0.0625
vt 0.0625 0.0625
vt 0.0625 0.0625
vt 0.0625 0.0625
vt 0.0625 0.0625
vt 0.0625 0.0625
vt 0.0625 0.0625
vt 0.0625 0.0625
vt 0.0625 0.0625
vt 0.0625 0.0625
vt 0.0625 0.0625
vt 0.0625 0.0625
vt 0.0625 0.0625
vt 0.0625 0.0625
vt 0.0625 0.0625
vt 0.0625 0.0625
vt 0.0625 0.0625
vt 0.0625 0.0625
vt 0.0625 0.0625
vt 0.0625 0.0625
vt 0.0625 0.0625
vt 0.0625 0.0625
vt 0.0625 0.0625
vt 0.0625 0.0625
vt 0.0625 0.0625
vt 0.0625 0.0625
vt 0.0625 0.0625
vt 0.0625 0.0625
vt 0.0625 0.0625
vt 0.0625 0.0625
vt 0.0625 0.0625
vt 0.0625 0.0625
vt 0.0625 0.0625
vt 0.0625 0.0625
vt 0.0625 0.0625
vt 0.0625 0.0625
vt 0.0625 0.0625
vt 0.0625 0.0625
vt 0.0625 0.0625
vt 0.0625 0.0625
vt 0.0625 0.0625
vt 0.0625 0.0625
vt 0.0625 0.0625
vt 0.0625 0.0625
vt 0.0625 0.0625
vt 0.0625 0.0625
vt 0.0625 0.0625
vt 0.0625 0.0625
vt 0.0625 0.0625
vt 0.0625 0.0625
vt 0.0625 0.0625
vt 0.0625 0.0625
vt 0.0625 0.0625
vt 0.0625 0.0625
vt 0.0625 0.0625
vt 0.0625 0.0625
vt 0.0625 0.0625
vt 0.0625 0.0625
vt 0.0625 0.0625
vt 0.0625 0.0625
vt 0.0625 0.0625
vt 0.0625 0.0625
vt 0.0625 0.0625
vt 0.0625 0.0625
vt 0.0625 0.0625
vt 0.0625 0.0625
vt 0.0625 0.0625
vn -0 -1 0
vn -0 -1 0
vn -0 -1 0
vn -0 -1 0
vn -0 -1 0
vn -0 -1 0
vn -1 0 0
vn -1 0 0
vn -1 0 0
vn -1 0 0
vn -0 1 0
vn -0 1 0
vn -0 1 0
vn -0 1 0
vn 1 0 0
vn 1 0 0
vn 1 0 0
vn 1 0 0
vn 1 0 0
vn 1 0 0
vn 1 0 0
vn 1 0 0
vn -1 0 0
vn -1 0 0
vn -1 0 0
vn -1 0 0
vn -1 0 0
vn -1 0 0
vn -1 0 0
vn -1 0 0
vn 1 0 0
vn 1 0 0
vn 1 0 0
vn 1 0 0
vn -0 0.4472136 0.8944272
vn -0 0.4472136 0.8944272
vn -0 0.4472136 0.8944272
vn -0 0.4472136 0.8944272
vn -0 0.4472136 0.8944272
vn -0 0.4472136 0.8944272
vn -0 0.4472136 0.8944272
vn -0 0.4472136 0.8944272
vn -0 0.4472136 0.8944272
vn -0 0.4472136 0.8944272
vn 0.8944272 0.4472136 0
vn 0.8944272 0.4472136 0
vn 0.8944272 0.4472136 0
vn 0.8944272 0.4472136 0
vn 0.8944272 0.4472136 0
vn 0.8944272 0.4472136 0
vn 0.8944272 0.4472136 0
vn 0.8944272 0.4472136 0
vn -0 0 -1
vn -0 0 -1
vn -0 0 -1
vn -0 0 -1
vn -0 0 -1
vn -0 0 -1
vn -0 0 -1
vn -0 0 -1
vn -0 0 -1
vn -0 0 -1
vn -0 1 0
vn -0 1 0
vn -0 1 0
vn -0 1 0
vn -0 1 0
vn -0.8944272 0.4472136 0
vn -0.8944272 0.4472136 0
vn -0.8944272 0.4472136 0
vn -0.8944272 0.4472136 0
vn -0.8944272 0.4472136 0
vn -0.8944272 0.4472136 0
vn -0.8944272 0.4472136 0
vn -0 0.4472136 0.8944272
vn -0 0.4472136 0.8944272
vn -0 0.4472136 0.8944272
vn -0 0.4472136 0.8944272
vn -0 0.4472136 0.8944272
vn -0 0.4472136 0.8944272
vn -0 0.4472136 0.8944272
vn -0 0.4472136 0.8944272
vn -1 0 0
vn -1 0 0
vn -1 0 0
vn -1 0 0
vn -1 0 0
vn -1 0 0
vn -1 0 0
vn -1 0 0
vn -1 0 0
vn -1 0 0
vn 1 0 0
vn 1 0 0
vn 1 0 0
vn 1 0 0
vn -0 0 -1
vn -0 0 -1
vn -0 0 -1
vn -0 0 -1
vn -0 0 1
vn -0 0 1
vn -0 0 1
vn -0 0 1
vn -0 1 0
vn -0 1 0
vn -0 1 0
vn -0 1 0
vn -1 0 0
vn -1 0 0
vn -1 0 0
vn -1 0 0
vn -0 -1 0
vn -0 -1 0
vn -0 -1 0
vn -0 -1 0
vn -0 -1 0
vn -0 0 1
vn -0 0 1
vn -0 0 1
vn -0 0 1
vn -0 1 0
vn -0 1 0
vn -0 1 0
vn -0 1 0
vn -0 1 0
vn -0 1 0
vn -0 1 0
vn -0 1 0
vn -0.8944272 0.4472136 0
vn -0.8944272 0.4472136 0
vn -0.8944272 0.4472136 0
vn -0.8944272 0.4472136 0
vn -0 -1 0
vn -0 -1 0
vn -0 -1 0
vn -0 -1 0
vn -0 -1 0
vn -0 0 -1
vn -0 0 -1
vn -0 0 -1
vn -0 0 -1
vn -0 1 0
vn -0 1 0
vn -0 1 0
vn -0 1 0
vn -0 0 1
vn -0 0 1
vn -0 0 1
vn -0 0 1
vn -0 1 0
vn -0 1 0
vn -0 1 0
vn -0 1 0
vn -0 0 -1
vn -0 0 -1
vn -0 0 -1
vn -0 0 -1
vn -0 1 0
vn -0 1 0
vn -0 1 0
vn -0 1 0
vn -0 1 0
vn -0.8944272 0.4472136 0
vn -0.8944272 0.4472136 0
vn -0.8944272 0.4472136 0
vn -0.8944272 0.4472136 0
vn -0 1 0
vn -0 1 0
vn -0 1 0
vn -0 1 0
vn -0 1 0
vn -0 0 -1
vn -0 0 -1
vn -0 0 -1
vn -0 0 -1
vn -0 1 0
vn -0 1 0
vn -0 1 0
vn -0 1 0
vn -0 0 1
vn -0 0 1
vn -0 0 1
vn -0 0 1
vn 0.8944272 0.4472136 0
vn 0.8944272 0.4472136 0
vn 0.8944272 0.4472136 0
vn 0.8944272 0.4472136 0
vn 0.8944272 0.4472136 0
vn 0.8944272 0.4472136 0
vn 0.8944272 0.4472136 0
vn 0.8944272 0.4472136 0
vn -0 1 0
vn -0 1 0
vn -0 1 0
vn -0 1 0
vn -0 0 -1
vn -0 0 -1
vn -0 0 -1
vn -0 0 -1
vn -0 1 0
vn -0 1 0
vn -0 1 0
vn -0 1 0
vn -0 0 -1
vn -0 0 -1
vn -0 0 -1
vn -0 0 -1
vn 1 0 0
vn 1 0 0
vn 1 0 0
vn 1 0 0
vn 1 0 0
vn 1 0 0
vn 1 0 0
vn 1 0 0
vn 1 0 0
vn 1 0 0
vn -0 0.4472136 0.8944272
vn -0 0.4472136 0.8944272
vn -0 0.4472136 0.8944272
vn -0 0.4472136 0.8944272
vn -0 -0.8944272 0.4472136
vn -0 -0.8944272 0.4472136
vn -0 -0.8944272 0.4472136
vn -0 -0.8944272 0.4472136
vn 1 0 0
vn 1 0 0
vn 1 0 0
vn 1 0 0
vn -0 0.8944272 -0.4472136
vn -0 0.8944272 -0.4472136
vn -0 0.8944272 -0.4472136
vn -0 0.8944272 -0.4472136
vn -0 0.4472136 0.8944272
vn -0 0.4472136 0.8944272
vn -0 0.4472136 0.8944272
vn -0 0.4472136 0.8944272
vn -0 0.8944272 -0.4472136
vn -0 0.8944272 -0.4472136
vn -0 0.8944272 -0.4472136
vn -0 0.8944272 -0.4472136
vn -1 0 0
vn -1 0 0
vn -1 0 0
vn -1 0 0
vn -0 -0.8944272 0.4472136
vn -0 -0.8944272 0.4472136
vn -0 -0.8944272 0.4472136
vn -0 -0.8944272 0.4472136
g mergedBlocks_0
f 3/3/3 2/2/2 1/1/1
f 2/2/2 3/3/3 4/4/4
f 4/4/4 3/3/3 5/5/5
f 4/4/4 5/5/5 6/6/6
f 9/9/9 8/8/8 7/7/7
f 8/8/8 9/9/9 10/10/10
f 13/13/13 12/12/12 11/11/11
f 12/12/12 13/13/13 14/14/14
f 17/17/17 16/16/16 15/15/15
f 16/16/16 17/17/17 18/18/18
f 21/21/21 20/20/20 19/19/19
f 20/20/20 21/21/21 22/22/22
f 25/25/25 24/24/24 23/23/23
f 24/24/24 25/25/25 26/26/26
f 29/29/29 28/28/28 27/27/27
f 28/28/28 29/29/29 30/30/30
f 33/33/33 32/32/32 31/31/31
f 32/32/32 33/33/33 34/34/34
f 37/37/37 36/36/36 35/35/35
f 36/36/36 37/37/37 38/38/38
f 38/38/38 37/37/37 39/39/39
f 42/42/42 41/41/41 40/40/40
f 41/41/41 42/42/42 43/43/43
f 41/41/41 43/43/43 44/44/44
f 47/47/47 46/46/46 45/45/45
f 46/46/46 47/47/47 48/48/48
f 48/48/48 47/47/47 49/49/49
f 49/49/49 47/47/47 50/50/50
f 50/50/50 47/47/47 51/51/51
f 50/50/50 51/51/51 52/52/52
f 55/55/55 54/54/54 53/53/53
f 54/54/54 55/55/55 56/56/56
f 56/56/56 55/55/55 57/57/57
f 56/56/56 57/57/57 58/58/58
f 61/61/61 60/60/60 59/59/59
f 60/60/60 61/61/61 62/62/62
f 65/65/65 64/64/64 63/63/63
f 64/64/64 65/65/65 66/66/66
f 66/66/66 65/65/65 67/67/67
f 70/70/70 69/69/69 68/68/68
f 69/69/69 70/70/70 71/71/71
f 71/71/71 70/70/70 72/72/72
f 71/71/71 72/72/72 73/73/73
f 71/71/71 73/73/73 74/74/74
f 77/77/77 76/76/76 75/75/75
f 76/76/76 77/77/77 78/78/78
f 78/78/78 77/77/77 79/79/79
f 79/79/79 77/77/77 80/80/80
f 81/81/81 76/76/76 78/78/78
f 76/76/76 81/81/81 82/82/82
f 85/85/85 84/84/84 83/83/83
f 84/84/84 85/85/85 86/86/86
f 86/86/86 85/85/85 87/87/87
f 87/87/87 85/85/85 88/88/88
f 88/88/88 85/85/85 89/89/89
f 89/89/89 85/85/85 90/90/90
f 90/90/90 85/85/85 91/91/91
f 91/91/91 85/85/85 92/92/92
f 95/95/95 94/94/94 93/93/93
f 94/94/94 95/95/95 96/96/96
f 99/99/99 98/98/98 97/97/97
f 98/98/98 99/99/99 100/100/100
f 103/103/103 102/102/102 101/101/101
f 102/102/102 103/103/103 104/104/104
f 107/107/107 106/106/106 105/105/105
f 106/106/106 107/107/107 108/108/108
f 111/111/111 110/110/110 109/109/109
f 110/110/110 111/111/111 112/112/112
f 115/115/115 114/114/114 113/113/113
f 114/114/114 115/115/115 116/116/116
f 114/114/114 116/116/116 117/117/117
f 120/120/120 119/119/119 118/118/118
f 119/119/119 120/120/120 121/121/121
f 124/124/124 123/123/123 122/122/122
f 123/123/123 124/124/124 125/125/125
f 128/128/128 127/127/127 126/126/126
f 127/127/127 128/128/128 129/129/129
f 132/132/132 131/131/131 130/130/130
f 131/131/131 132/132/132 133/133/133
f 136/136/136 135/135/135 134/134/134
f 135/135/135 136/136/136 137/137/137
f 137/137/137 136/136/136 138/138/138
f 141/141/141 140/140/140 139/139/139
f 140/140/140 141/141/141 142/142/142
f 145/145/145 144/144/144 143/143/143
f 144/144/144 145/145/145 146/146/146
f 149/149/149 148/148/148 147/147/147
f 148/148/148 149/149/149 150/150/150
f 153/153/153 152/152/152 151/151/151
f 152/152/152 153/153/153 154/154/154
f 157/157/157 156/156/156 155/155/155
f 156/156/156 157/157/157 158/158/158
f 161/161/161 160/160/160 159/159/159
f 160/160/160 161/161/161 162/162/162
f 162/162/162 161/161/161 163/163/163
f 166/166/166 165/165/165 164/164/164
f 165/165/165 166/166/166 167/167/167
f 170/170/170 169/169/169 168/168/168
f 169/169/169 170/170/170 171/171/171
f 171/171/171 170/170/170 172/172/172
f 175/175/175 174/174/174 173/173/173
f 174/174/174 175/175/175 176/176/176
f 179/179/179 178/178/178 177/177/177
f 178/178/178 179/179/179 180/180/180
f 183/183/183 182/182/182 181/181/181
f 182/182/182 183/183/183 184/184/184
f 187/187/187 186/186/186 185/185/185
f 186/186/186 187/187/187 188/188/188
f 191/191/191 190/190/190 189/189/189
f 190/190/190 191/191/191 192/192/192
f 195/195/195 194/194/194 193/193/193
f 194/194/194 195/195/195 196/196/196
f 199/199/199 198/198/198 197/197/197
f 198/198/198 199/199/199 200/200/200
f 203/203/203 202/202/202 201/201/201
f 202/202/202 203/203/203 204/204/204
f 207/207/207 206/206/206 205/205/205
f 206/206/206 207/207/207 208/208/208
f 211/211/211 210/210/210 209/209/209
f 210/210/210 211/211/211 212/212/212
f 212/212/212 211/211/211 213/213/213
f 212/212/212 213/213/213 214/214/214
f 212/212/212 214/214/214 215/215/215
f 212/212/212 215/215/215 216/216/216
f 212/212/212 216/216/216 217/217/217
f 212/212/212 217/217/217 218/218/218
f 221/221/221 220/220/220 219/219/219
f 220/220/220 221/221/221 222/222/222
f 225/225/225 224/224/224 223/223/223
f 224/224/224 225/225/225 226/226/226
f 229/229/229 228/228/228 227/227/227
f 228/228/228 229/229/229 230/230/230
f 233/233/233 232/232/232 231/231/231
f 232/232/232 233/233/233 234/234/234
f 237/237/237 236/236/236 235/235/235
f 236/236/236 237/237/237 238/238/238
f 241/241/241 240/240/240 239/239/239
f 240/240/240 241/241/241 242/242/242
f 245/245/245 244/244/244 243/243/243
f 244/244/244 245/245/245 246/246/246
f 249/249/249 248/248/248 247/247/247
f 248/248/248 249/249/249 250/250/250
