g mergedBlocks
v 0.29999998 1.4543609E-07 -0.17320499
v 0.29999998 1.4543609E-07 0.17320509
v 4.818865E-10 1.1920929E-07 -0.34641019
v -6.0086535E-08 1.1920929E-07 0.34641019
v -0.29999998 9.298245E-08 -0.17320509
v -0.30000007 9.298245E-08 0.17320499
v 0.29999998 1.1920929E-07 0.17320509
v 0.29999998 1.1920929E-07 -0.17320509
v -2.980225E-08 1.1920929E-07 0.34641019
v -2.9802397E-08 1.1920929E-07 -0.34641019
v -0.29999998 1.1920929E-07 0.17320509
v -0.29999998 1.1920929E-07 -0.17320509
v 0.32999998 0.1020001 -0.19052559
v 0.29999998 1.1920929E-07 -0.17320509
v 0.32999998 0.1020001 0.19052559
v -2.9802408E-08 0.1020001 -0.38105118
v 0.29999998 1.1920929E-07 0.17320509
v -2.9802397E-08 1.1920929E-07 -0.34641019
v -2.980225E-08 1.1920929E-07 0.34641019
v -0.32999998 0.1020001 -0.19052559
v -2.9802239E-08 0.1020001 0.38105118
v -0.29999998 1.1920929E-07 -0.17320509
v -0.29999998 1.1920929E-07 0.17320509
v -0.32999998 0.1020001 0.19052559
v -0.27857998 0.1020001 0.16083819
v -2.980225E-08 0.1020001 0.32167646
v -0.32999998 0.1020001 0.19052559
v -0.27857998 0.1020001 -0.16083819
v -2.9802239E-08 0.1020001 0.38105118
v -0.32999998 0.1020001 -0.19052559
v 0.27857998 0.1020001 0.16083819
v 0.32999998 0.1020001 0.19052559
v 0.32999998 0.1020001 -0.19052559
v 0.27857998 0.1020001 -0.16083819
v -2.9802408E-08 0.1020001 -0.38105118
v -2.9802397E-08 0.1020001 -0.32167646
v 0.3299999 -0.101999894 0.19052559
v 0.29999998 1.4543609E-07 0.17320509
v 0.32999998 -0.101999894 -0.19052559
v -5.4197837E-08 -0.101999894 0.38105118
v 0.29999998 1.4543609E-07 -0.17320499
v -6.0086535E-08 1.1920929E-07 0.34641019
v 4.818865E-10 1.1920929E-07 -0.34641019
v -0.33000007 -0.101999894 0.19052559
v 1.2427439E-08 -0.101999894 -0.38105118
v -0.30000007 9.298245E-08 0.17320499
v -0.29999998 9.298245E-08 -0.17320509
v -0.32999998 -0.101999894 -0.19052559
v -0.27857998 -0.101999894 -0.16083829
v 7.23672E-09 -0.101999894 -0.32167646
v -0.32999998 -0.101999894 -0.19052559
v -0.27857998 -0.101999894 0.16083819
v 1.2427439E-08 -0.101999894 -0.38105118
v -0.33000007 -0.101999894 0.19052559
v 0.27857998 -0.101999894 -0.16083819
v 0.32999998 -0.101999894 -0.19052559
v 0.3299999 -0.101999894 0.19052559
v 0.27857998 -0.101999894 0.16083829
v -5.4197837E-08 -0.101999894 0.38105118
v -4.900712E-08 -0.101999894 0.32167646
v -0.27857998 0.1020001 -0.16083819
v -2.9802397E-08 0.1020001 -0.32167646
v -0.23699997 0.30000007 -0.13683198
v -0.27857998 0.1020001 0.16083819
v -2.980239E-08 0.30000007 -0.27366397
v 0.27857998 0.1020001 -0.16083819
v 0.23699997 0.30000007 -0.13683198
v 0.27857998 0.1020001 0.16083819
v 0.23699997 0.30000007 0.13683198
v -2.980225E-08 0.1020001 0.32167646
v -2.9802269E-08 0.30000007 0.27366397
v -0.23699997 0.30000007 0.13683198
v -0.037500028 0.6000001 -0.02165063
v -2.980233E-08 0.6000001 -0.043301266
v 0.037499968 0.6000001 -0.02165063
v 0.037499968 0.6000001 0.02165063
v -2.9802317E-08 0.6000001 0.043301266
v -0.037500028 0.6000001 0.02165063
v -0.27857998 -0.101999894 0.16083819
v -4.900712E-08 -0.101999894 0.32167646
v -0.23699997 -0.2999999 0.13683198
v -0.27857998 -0.101999894 -0.16083829
v -2.7500016E-08 -0.2999999 0.27366397
v 0.27857998 -0.101999894 0.16083829
v 0.23699997 -0.2999999 0.13683198
v 0.27857998 -0.101999894 -0.16083819
v 0.23699997 -0.2999999 -0.13683198
v 7.23672E-09 -0.101999894 -0.32167646
v 2.034903E-08 -0.2999999 -0.27366397
v -0.23699997 -0.2999999 -0.13683198
v -0.037499975 -0.59999985 0.02165063
v 1.886582E-08 -0.59999985 0.043301266
v 0.03750002 -0.59999985 0.02165064
v 0.037500028 -0.59999985 -0.02165063
v 2.6436869E-08 -0.59999985 -0.043301266
v -0.037499975 -0.59999985 -0.02165064
vt 0.3125 0.0625
vt 0.3125 0.0625
vt 0.3125 0.0625
vt 0.3125 0.0625
vt 0.3125 0.0625
vt 0.3125 0.0625
vt 0.3125 0.0625
vt 0.3125 0.0625
vt 0.3125 0.0625
vt 0.3125 0.0625
vt 0.3125 0.0625
vt 0.3125 0.0625
vt 0.3125 0.0625
vt 0.3125 0.0625
vt 0.3125 0.0625
vt 0.3125 0.0625
vt 0.3125 0.0625
vt 0.3125 0.0625
vt 0.3125 0.0625
vt 0.3125 0.0625
vt 0.3125 0.0625
vt 0.3125 0.0625
vt 0.3125 0.0625
vt 0.3125 0.0625
vt 0.3125 0.0625
vt 0.3125 0.0625
vt 0.3125 0.0625
vt 0.3125 0.0625
vt 0.3125 0.0625
vt 0.3125 0.0625
vt 0.3125 0.0625
vt 0.3125 0.0625
vt 0.3125 0.0625
vt 0.3125 0.0625
vt 0.3125 0.0625
vt 0.3125 0.0625
vt 0.3125 0.0625
vt 0.3125 0.0625
vt 0.3125 0.0625
vt 0.3125 0.0625
vt 0.3125 0.0625
vt 0.3125 0.0625
vt 0.3125 0.0625
vt 0.3125 0.0625
vt 0.3125 0.0625
vt 0.3125 0.0625
vt 0.3125 0.0625
vt 0.3125 0.0625
vt 0.3125 0.0625
vt 0.3125 0.0625
vt 0.3125 0.0625
vt 0.3125 0.0625
vt 0.3125 0.0625
vt 0.3125 0.0625
vt 0.3125 0.0625
vt 0.3125 0.0625
vt 0.3125 0.0625
vt 0.3125 0.0625
vt 0.3125 0.0625
vt 0.3125 0.0625
vt 0.4375 0.0625
vt 0.4375 0.0625
vt 0.4375 0.0625
vt 0.4375 0.0625
vt 0.4375 0.0625
vt 0.4375 0.0625
vt 0.4375 0.0625
vt 0.4375 0.0625
vt 0.4375 0.0625
vt 0.4375 0.0625
vt 0.4375 0.0625
vt 0.4375 0.0625
vt 0.4375 0.0625
vt 0.4375 0.0625
vt 0.4375 0.0625
vt 0.4375 0.0625
vt 0.4375 0.0625
vt 0.4375 0.0625
vt 0.4375 0.0625
vt 0.4375 0.0625
vt 0.4375 0.0625
vt 0.4375 0.0625
vt 0.4375 0.0625
vt 0.4375 0.0625
vt 0.4375 0.0625
vt 0.4375 0.0625
vt 0.4375 0.0625
vt 0.4375 0.0625
vt 0.4375 0.0625
vt 0.4375 0.0625
vt 0.4375 0.0625
vt 0.4375 0.0625
vt 0.4375 0.0625
vt 0.4375 0.0625
vt 0.4375 0.0625
vt 0.4375 0.0625
vn -0 1 0
vn -0 1 0
vn -0 1 0
vn -0 1 0
vn -0 1 0
vn -0 1 0
vn -0 -1 0
vn -0 -1 0
vn -0 -1 0
vn -0 -1 0
vn -0 -1 0
vn -0 -1 0
vn 0.82002467 -0.32157832 -0.47344145
vn 0.82002467 -0.32157832 -0.4734415
vn 0.8200247 -0.3215783 0.47344148
vn -0.0205773 -0.32151026 -0.9466826
vn 0.8200247 -0.3215783 0.47344148
vn -0.021924982 -0.32150096 -0.9466554
vn 0.02192503 -0.32150108 0.9466554
vn -0.8301399 -0.3215102 -0.45552078
vn 0.020577313 -0.32151023 0.94668245
vn -0.83079016 -0.32150096 -0.45433995
vn -0.8088652 -0.32150102 0.49231523
vn -0.8095625 -0.32151023 0.49116167
vn -0 1 0
vn -0 1 0
vn -0 1 0
vn -0 1 0
vn -0 1 0
vn -0 1 0
vn -0 1 0
vn -0 1 0
vn -0 1 0
vn -0 1 0
vn -0 1 0
vn -0 1 0
vn 0.8200249 0.32157743 0.47344175
vn 0.8200251 0.32157758 0.4734415
vn 0.8200246 0.32157838 -0.47344175
vn -0.020577315 0.32151014 0.9466826
vn 0.82002485 0.32157853 -0.4734412
vn -0.021925075 0.32150108 0.9466554
vn 0.021924915 0.321501 -0.9466554
vn -0.8301396 0.32151043 0.45552087
vn 0.020577315 0.3215102 -0.9466826
vn -0.8307903 0.32150143 0.45433956
vn -0.80886495 0.32150105 -0.49231547
vn -0.8095623 0.32151023 -0.4911618
vn -0 -1 0
vn -0 -1 0
vn -0 -1 0
vn -0 -1 0
vn -0 -1 0
vn -0 -1 0
vn -0 -1 0
vn -0 -1 0
vn -0 -1 0
vn -0 -1 0
vn -0 -1 0
vn -0 -1 0
vn -0.84163475 0.23565774 -0.485918
vn 0.02579206 0.2355795 -0.9715128
vn -0.77232605 0.4524194 -0.44590265
vn -0.84163475 0.23565778 0.485918
vn 0.023063151 0.453845 -0.8907822
vn 0.8542507 0.23557937 -0.46341997
vn 0.7829715 0.453845 -0.4254179
vn 0.82845885 0.23557937 0.5080929
vn 0.7599084 0.45384493 0.46536437
vn -0.025792113 0.2355795 0.9715128
vn -0.023063185 0.453845 0.89078206
vn -0.77089924 0.45565242 0.44507882
vn -0.6781504 0.62194544 -0.39153025
vn 0.21854062 0.6264951 -0.74816036
vn 0.75719607 0.6264952 -0.1848184
vn 0.54619795 0.6126695 0.5712301
vn -0.21854067 0.62649506 0.7481603
vn -0.64097726 0.67245626 0.3700684
vn -0.8416348 -0.23565772 0.48591787
vn 0.025791844 -0.23557945 0.9715128
vn -0.772326 -0.45241946 0.44590262
vn -0.8416346 -0.23565793 -0.4859182
vn 0.02306306 -0.453845 0.89078206
vn 0.8542506 -0.23557948 0.46341997
vn 0.7829715 -0.45384493 0.42541784
vn 0.82845885 -0.23557931 -0.5080928
vn 0.75990844 -0.45384488 -0.4653643
vn -0.025791893 -0.2355795 -0.9715128
vn -0.02306308 -0.453845 -0.8907822
vn -0.7708992 -0.45565253 -0.4450788
vn -0.6781503 -0.62194556 0.39153025
vn 0.21854064 -0.6264951 0.74816036
vn 0.7571962 -0.626495 0.18481848
vn 0.54619807 -0.6126694 -0.57123
vn -0.21854055 -0.6264951 -0.74816036
vn -0.64097726 -0.6724564 -0.37006846
g mergedBlocks_0
f 3/3/3 2/2/2 1/1/1
f 2/2/2 3/3/3 4/4/4
f 4/4/4 3/3/3 5/5/5
f 4/4/4 5/5/5 6/6/6
f 9/9/9 8/8/8 7/7/7
f 8/8/8 9/9/9 10/10/10
f 10/10/10 9/9/9 11/11/11
f 10/10/10 11/11/11 12/12/12
f 15/15/15 14/14/14 13/13/13
f 14/14/14 16/16/16 13/13/13
f 14/14/14 15/15/15 17/17/17
f 16/16/16 14/14/14 18/18/18
f 15/15/15 19/19/19 17/17/17
f 18/18/18 20/20/20 16/16/16
f 19/19/19 15/15/15 21/21/21
f 20/20/20 18/18/18 22/22/22
f 21/21/21 23/23/23 19/19/19
f 22/22/22 24/24/24 20/20/20
f 23/23/23 21/21/21 24/24/24
f 24/24/24 22/22/22 23/23/23
f 27/27/27 26/26/26 25/25/25
f 27/27/27 25/25/25 28/28/28
f 29/29/29 26/26/26 27/27/27
f 28/28/28 30/30/30 27/27/27
f 29/29/29 31/31/31 26/26/26
f 32/32/32 31/31/31 29/29/29
f 31/31/31 32/32/32 33/33/33
f 33/33/33 34/34/34 31/31/31
f 28/28/28 35/35/35 30/30/30
f 34/34/34 33/33/33 35/35/35
f 36/36/36 35/35/35 28/28/28
f 34/34/34 35/35/35 36/36/36
f 39/39/39 38/38/38 37/37/37
f 38/38/38 40/40/40 37/37/37
f 38/38/38 39/39/39 41/41/41
f 40/40/40 38/38/38 42/42/42
f 39/39/39 43/43/43 41/41/41
f 42/42/42 44/44/44 40/40/40
f 43/43/43 39/39/39 45/45/45
f 44/44/44 42/42/42 46/46/46
f 45/45/45 47/47/47 43/43/43
f 46/46/46 48/48/48 44/44/44
f 47/47/47 45/45/45 48/48/48
f 48/48/48 46/46/46 47/47/47
f 51/51/51 50/50/50 49/49/49
f 51/51/51 49/49/49 52/52/52
f 53/53/53 50/50/50 51/51/51
f 52/52/52 54/54/54 51/51/51
f 53/53/53 55/55/55 50/50/50
f 56/56/56 55/55/55 53/53/53
f 55/55/55 56/56/56 57/57/57
f 57/57/57 58/58/58 55/55/55
f 52/52/52 59/59/59 54/54/54
f 58/58/58 57/57/57 59/59/59
f 60/60/60 59/59/59 52/52/52
f 58/58/58 59/59/59 60/60/60
f 63/63/63 62/62/62 61/61/61
f 64/64/64 63/63/63 61/61/61
f 62/62/62 63/63/63 65/65/65
f 65/65/65 66/66/66 62/62/62
f 66/66/66 65/65/65 67/67/67
f 67/67/67 68/68/68 66/66/66
f 68/68/68 67/67/67 69/69/69
f 69/69/69 70/70/70 68/68/68
f 71/71/71 64/64/64 70/70/70
f 70/70/70 69/69/69 71/71/71
f 63/63/63 64/64/64 72/72/72
f 64/64/64 71/71/71 72/72/72
f 73/73/73 65/65/65 63/63/63
f 72/72/72 73/73/73 63/63/63
f 74/74/74 67/67/67 65/65/65
f 65/65/65 73/73/73 74/74/74
f 75/75/75 69/69/69 67/67/67
f 67/67/67 74/74/74 75/75/75
f 76/76/76 71/71/71 69/69/69
f 69/69/69 75/75/75 76/76/76
f 71/71/71 76/76/76 77/77/77
f 75/75/75 77/77/77 76/76/76
f 77/77/77 72/72/72 71/71/71
f 77/77/77 75/75/75 74/74/74
f 78/78/78 74/74/74 73/73/73
f 73/73/73 72/72/72 78/78/78
f 77/77/77 74/74/74 78/78/78
f 72/72/72 77/77/77 78/78/78
f 81/81/81 80/80/80 79/79/79
f 82/82/82 81/81/81 79/79/79
f 80/80/80 81/81/81 83/83/83
f 83/83/83 84/84/84 80/80/80
f 84/84/84 83/83/83 85/85/85
f 85/85/85 86/86/86 84/84/84
f 86/86/86 85/85/85 87/87/87
f 87/87/87 88/88/88 86/86/86
f 89/89/89 82/82/82 88/88/88
f 88/88/88 87/87/87 89/89/89
f 81/81/81 82/82/82 90/90/90
f 82/82/82 89/89/89 90/90/90
f 91/91/91 83/83/83 81/81/81
f 90/90/90 91/91/91 81/81/81
f 92/92/92 85/85/85 83/83/83
f 83/83/83 91/91/91 92/92/92
f 93/93/93 87/87/87 85/85/85
f 85/85/85 92/92/92 93/93/93
f 94/94/94 89/89/89 87/87/87
f 87/87/87 93/93/93 94/94/94
f 89/89/89 94/94/94 95/95/95
f 93/93/93 95/95/95 94/94/94
f 95/95/95 90/90/90 89/89/89
f 95/95/95 93/93/93 92/92/92
f 96/96/96 92/92/92 91/91/91
f 91/91/91 90/90/90 96/96/96
f 95/95/95 92/92/92 96/96/96
f 90/90/90 95/95/95 96/96/96
