g polySurface37
v -0.037255995 1.1846051 -0.13904095
v -7.338107E-18 1.5945263 -9.536743E-07
v -0.129057 1.1846051 -0.074512005
v -0.20451398 1.0451112 -0.1180768
v -0.11862099 1.01155 -0.2176919
v -1.6285806E-16 0.9775544 -0.26921177
v 0.074511 1.1846051 -0.12905788
v 0.134604 0.9775544 -0.2331438
v -7.338107E-18 1.5945263 -9.536743E-07
v 0.13904 1.1846051 -0.037255768
v 0.20801398 1.0328423 -0.10861111
v 0.262788 0.9335981 -0.13411808
v 0.298855 0.9335981 0.00048589706
v 0.101784 1.1846051 0.10178423
v 0.18387298 0.9775544 0.18387222
v -0.04201 1.1682253 0.14727402
v -0.13904 1.1846051 0.03725481
v -0.062548 0.99393415 0.24293804
v -0.019251 0.87414414 0.3495512
v -0.233142 0.9775544 0.13460398
v -0.303492 0.938035 -9.536743E-07
v -0.261413 0.9399243 -0.15092802
v -0.20451398 1.0451112 -0.1180768
v -0.129057 1.1846051 -0.074512005
v -7.338107E-18 1.5945263 -9.536743E-07
v 0.11755529 1.0160952 0.068799496
v 0.005251653 1.2422551 -0.008225918
v 0.14680497 1.0203086 0.011662483
v 0.41603667 0.72180265 0.055354595
v 0.32416347 0.8028752 -0.110414505
v 0.14363149 1.0218502 -0.05256701
v 0.005251653 1.2422551 -0.008225918
v 0.30258477 0.72180265 -0.2987075
v 0.10888447 1.0203086 -0.10667944
v 0.26273286 0.7893171 0.17549038
v 0.39431494 0.62907624 0.27710533
v 0.16745393 0.6919775 0.3302145
v 0.06371824 1.0103394 0.10353327
v 0.005251653 1.2422551 -0.008225918
v -0.00027938932 1.0045842 0.10655689
v -0.01485005 0.76220006 0.26443386
v 0.005251653 1.2422551 -0.008225918
v 0.108009376 0.7893171 -0.307374
v 0.15603036 0.62907624 -0.46653843
v 0.05187485 1.0160952 -0.13617563
v 0.005251653 1.2422551 -0.008225918
v -0.0427493 0.77575904 -0.30025053
v -0.07614863 0.60819507 -0.4555683
v -0.22051938 0.674757 -0.27399206
v -0.012122774 1.0103394 -0.13315248
v -0.065959826 1.0045842 -0.098418236
v -0.2384784 0.7522744 -0.08383036
v -0.0952095 1.0003709 -0.0412817
v -0.09203604 0.99882823 0.022947788
v -0.29853767 0.65753734 0.08911753
v -0.14914855 0.7522744 0.19495106
v -0.2400119 0.57202846 0.30707455
v -0.057289004 1.0003709 0.07706118
v 0.005251653 1.2422551 -0.008225918
v -0.01485005 0.76220006 0.26443386
v -0.03318153 0.5873148 0.41408777
v -0.00027938932 1.0045842 0.10655689
v 0.005251653 1.2422551 -0.008225918
v -5.9001225E-17 0.7032471 -0.14627695
v 8.908772E-17 0.97192574 -0.0049419403
v -0.06652325 0.7027018 -0.12845945
v -0.15479894 0.5018357 -0.28757903
v -2.832966E-17 0.50310457 -0.3290381
v 0.06652325 0.7027018 -0.12845945
v 8.908772E-17 0.97192574 -0.0049419403
v 0.11522202 0.70121217 -0.07978392
v 0.21145946 0.50010145 -0.23094654
v 0.25185803 0.3794432 -0.45952034
v 0.016811332 0.29240742 -0.6154432
v -0.25185803 0.3794432 -0.45952034
v -0.2888586 0.49599987 -0.09694719
v -0.4362312 0.3738013 -0.27522945
v -0.11522202 0.70121217 -0.07978392
v 8.908772E-17 0.97192574 -0.0049419403
v -0.1330465 0.6991763 -0.013291836
v 8.908772E-17 0.97192574 -0.0049419403
v 0.1330465 0.6991763 -0.013291836
v 8.908772E-17 0.97192574 -0.0049419403
v 0.30959788 0.493631 -0.019584179
v 0.5037168 0.36609545 -0.023488522
v 0.4362312 0.3738013 -0.27522945
v 0.4362312 0.35838863 0.22825146
v 0.21145946 0.48716074 0.19177628
v 0.11522202 0.6971409 0.053200245
v 0.06652325 0.6956505 0.10187626
v 5.5564706E-17 0.69510514 0.119692326
v -0.06652325 0.6956505 0.10187626
v 2.2406812E-17 0.48415774 0.28986883
v -6.279471E-17 0.3506819 0.47999144
v 0.31459954 0.25840095 0.49539706
v -0.25185803 0.35274684 0.41253802
v -0.15479894 0.4854271 0.24840975
v -0.49897274 0.26507092 0.27750206
v -0.11522202 0.6971409 0.053200245
v 8.908772E-17 0.97192574 -0.0049419403
v -0.26812 0.48889446 0.13514233
v -0.5037168 0.36609545 -0.023488522
v -0.2888586 0.49599987 -0.09694719
v -0.1330465 0.6991763 -0.013291836
v 8.908772E-17 0.97192574 -0.0049419403
v 0.0036879997 -0.2042737 0.046416283
v 0.022500003 1.1649145 -0.0017290115
v 0.040438004 -0.2042737 -0.017235756
v 0.009593 1.1649145 0.020627022
v -0 1.3174853 -9.536743E-07
v -0.06981199 -0.2042737 0.046416283
v -0.016222 1.1649145 0.020627022
v -0 1.3174853 -9.536743E-07
v -0.10656099 -0.2042737 -0.017235756
v -0.02913 1.1649145 -0.0017290115
v -0 1.3174853 -9.536743E-07
v -0.06981199 -0.2042737 -0.08088875
v -0.016222 1.1649145 -0.024085045
v -0 1.3174853 -9.536743E-07
v 0.0036879997 -0.2042737 -0.08088875
v 0.009593 1.1649145 -0.024085999
v -0 1.3174853 -9.536743E-07
v 0.040438004 -0.2042737 -0.017235756
v 0.022500003 1.1649145 -0.0017290115
v -0 1.3174853 -9.536743E-07
vt 0.51189 0.720891
vt 0.563071 0.778058
vt 0.530387 0.711718
vt 0.526481 0.682851
vt 0.502525 0.684046
vt 0.479843 0.690331
vt 0.49734 0.735544
vt 0.462793 0.707764
vt 0.563071 0.778058
vt 0.487961 0.754237
vt 0.46133 0.734706
vt 0.443535 0.723681
vt 0.432723 0.746382
vt 0.48405 0.78071
vt 0.440885 0.783465
vt 0.487484 0.80878
vt 0.505808 0.829011
vt 0.455002 0.825107
vt 0.42545 0.831386
vt 0.471256 0.856527
vt 0.486017 0.880635
vt 0.51245 0.89079
vt 0.517338 0.868998
vt 0.522724 0.840418
vt 0.563071 0.778058
vt 0.24785 0.856208
vt 0.269113 0.813715
vt 0.237753 0.849764
vt 0.195931 0.911743
vt 0.188863 0.874914
vt 0.229613 0.840984
vt 0.269113 0.813715
vt 0.155366 0.860339
vt 0.223982 0.830341
vt 0.232765 0.907241
vt 0.220023 0.948055
vt 0.260728 0.933042
vt 0.259241 0.859455
vt 0.269113 0.813715
vt 0.271252 0.858926
vt 0.288143 0.908006
vt 0.269113 0.813715
vt 0.167789 0.824789
vt 0.125105 0.830305
vt 0.220949 0.81874
vt 0.269113 0.813715
vt 0.168519 0.797263
vt 0.126614 0.788814
vt 0.158742 0.76079
vt 0.221313 0.806768
vt 0.224661 0.795305
vt 0.19298 0.747732
vt 0.230769 0.784947
vt 0.239328 0.776676
vt 0.203725 0.71132
vt 0.240093 0.719274
vt 0.232347 0.677625
vt 0.249938 0.771156
vt 0.269113 0.813715
vt 0.268047 0.718168
vt 0.275003 0.676952
vt 0.261602 0.769041
vt 0.269113 0.813715
vt 0.657296 0.362277
vt 0.69693 0.407176
vt 0.66944 0.35537
vt 0.658362 0.301626
vt 0.629031 0.314975
vt 0.647698 0.37284
vt 0.69693 0.407176
vt 0.640794 0.385481
vt 0.599866 0.350187
vt 0.566569 0.311188
vt 0.58624 0.256765
vt 0.648802 0.255912
vt 0.705077 0.304241
vt 0.699819 0.253882
vt 0.682988 0.352371
vt 0.69693 0.407176
vt 0.697097 0.353217
vt 0.69693 0.407176
vt 0.636564 0.399072
vt 0.69693 0.407176
vt 0.581286 0.391741
vt 0.534294 0.385262
vt 0.550312 0.336902
vt 0.536734 0.436136
vt 0.588233 0.436734
vt 0.636781 0.413264
vt 0.640275 0.427201
vt 0.646673 0.439901
vt 0.65658 0.449914
vt 0.606966 0.478587
vt 0.571615 0.509048
vt 0.518624 0.471838
vt 0.610564 0.54049
vt 0.632224 0.498976
vt 0.65353 0.579494
vt 0.669147 0.456184
vt 0.69693 0.407176
vt 0.662862 0.509719
vt 0.709288 0.551983
vt 0.709403 0.501514
vt 0.682752 0.458645
vt 0.69693 0.407176
vt 0.939875 0.279635
vt 0.938076 0.507169
vt 0.951882 0.280458
vt 0.933842 0.50677
vt 0.926341 0.53143
vt 0.927895 0.279225
vt 0.929582 0.50648
vt 0.926341 0.53143
vt 0.915917 0.27935
vt 0.925317 0.506438
vt 0.926341 0.53143
vt 0.903936 0.280107
vt 0.921058 0.506752
vt 0.926341 0.53143
vt 0.892002 0.281459
vt 0.916839 0.507394
vt 0.926341 0.53143
vt 0.880118 0.283387
vt 0.912669 0.50822
vt 0.926341 0.53143
vn -0.19425397 0.4528829 -0.8701508
vn 0.05866899 0.9570158 0.28403994
vn -0.77787936 0.47948015 -0.40620515
vn -0.7810369 0.5524609 -0.29114997
vn -0.40320688 0.51726884 -0.7548888
vn 0.073238984 0.5150859 -0.85400385
vn 0.43418896 0.45992294 -0.7745649
vn 0.35902297 0.533227 -0.76601005
vn 0.05866899 0.9570158 0.28403994
vn 0.88128287 0.4702209 -0.04725399
vn 0.76905394 0.512472 -0.382006
vn 0.8321343 0.5015571 -0.23662806
vn 0.842294 0.522369 0.132934
vn 0.61318904 0.45404106 0.64641005
vn 0.58630776 0.5431627 0.6010138
vn -0.18377495 0.45761594 0.86995083
vn -0.8202122 0.47703713 0.31573305
vn -0.07640697 0.56197774 0.82361573
vn 0.21155502 0.6913371 0.6908671
vn -0.6647946 0.51694274 0.53927577
vn -0.8406011 0.538789 -0.055644006
vn -0.8280018 0.5373439 -0.16023299
vn -0.7810369 0.5524609 -0.29114997
vn -0.77787936 0.47948015 -0.40620515
vn 0.05866899 0.9570158 0.28403994
vn 0.55383706 0.60969204 0.56704503
vn -0.08821196 0.99570054 0.028265985
vn 0.73752475 0.64827275 0.18920794
vn 0.6916442 0.68332916 0.23385806
vn 0.7123956 0.66361463 -0.22827187
vn 0.72563 0.64761007 -0.232513
vn -0.08821196 0.99570054 0.028265985
vn 0.42692605 0.68332905 -0.59228003
vn 0.4902119 0.648273 -0.58260995
vn 0.52814895 0.648624 0.548038
vn 0.4777372 0.71551925 0.5097052
vn 0.23115893 0.62807983 0.7430218
vn 0.19564092 0.5832568 0.7883756
vn -0.08821196 0.99570054 0.028265985
vn -0.22599097 0.52790594 0.8186839
vn -0.2749179 0.5816278 0.7655908
vn -0.08821196 0.99570054 0.028265985
vn 0.077926986 0.6633699 -0.7442229
vn -0.0045329984 0.70402896 -0.71015686
vn 0.11921098 0.60409695 -0.78794384
vn -0.08821196 0.99570054 0.028265985
vn -0.26404497 0.6326149 -0.72806495
vn -0.1873241 0.68759036 -0.7015193
vn -0.59525305 0.591401 -0.54398406
vn -0.29802093 0.5665729 -0.7682308
vn -0.6501019 0.54571986 -0.5287319
vn -0.83733624 0.52424014 -0.15504904
vn -0.8478482 0.50609916 -0.15816805
vn -0.8201725 0.5081827 0.2628068
vn -0.777294 0.55122197 0.30326298
vn -0.5515046 0.5691686 0.6098276
vn -0.47172794 0.6248189 0.6221529
vn -0.59766966 0.5004357 0.6263826
vn -0.08821196 0.99570054 0.028265985
vn -0.2749179 0.5816278 0.7655908
vn -0.3960148 0.62062067 0.6767587
vn -0.22599097 0.52790594 0.8186839
vn -0.08821196 0.99570054 0.028265985
vn 0.06977203 0.67479527 -0.73469937
vn -0 0.99525404 0.097311
vn -0.45886326 0.66101134 -0.5937243
vn -0.31552613 0.8365362 -0.4479401
vn 0.040951 0.832509 -0.552496
vn 0.371943 0.637541 -0.67468506
vn -0 0.99525404 0.097311
vn 0.7335222 0.6023562 -0.3148211
vn 0.40143794 0.834219 -0.37805593
vn 0.14045806 0.8728234 -0.4673872
vn 0.028545985 0.8688227 -0.49429983
vn -0.2332901 0.8782784 -0.4173762
vn -0.59925807 0.79984707 -0.033683
vn -0.40422478 0.87721455 -0.25903082
vn -0.6888732 0.6098811 -0.3917891
vn -0 0.99525404 0.097311
vn -0.8212203 0.56181717 0.09979403
vn -0 0.99525404 0.097311
vn 0.80288553 0.5933043 0.058009032
vn -0 0.99525404 0.097311
vn 0.59549296 0.79954785 0.07817499
vn 0.50744915 0.85759234 0.08385003
vn 0.49930084 0.86118984 -0.09513499
vn 0.49930102 0.82645303 0.26014203
vn 0.41216406 0.7444041 0.5253411
vn 0.733522 0.52996904 0.425533
vn 0.37194094 0.49478298 0.7853978
vn 0.06977099 0.51970696 0.85149086
vn -0.3969952 0.5381332 0.7435103
vn 0.091775045 0.7284853 0.6788863
vn 0.11211697 0.7808859 0.61452997
vn 0.22287907 0.76934326 0.59869516
vn -0.35197192 0.7714138 0.53012884
vn -0.34844893 0.7209029 0.5990679
vn -0.5164358 0.7828627 0.34701586
vn -0.7250018 0.5643579 0.39480695
vn -0 0.99525404 0.097311
vn -0.57133096 0.74153394 0.35172194
vn -0.55177397 0.79723996 0.24485499
vn -0.59925807 0.79984707 -0.033683
vn -0.8212203 0.56181717 0.09979403
vn -0 0.99525404 0.097311
vn 0.49051383 0.039143987 0.87055373
vn 0.9998555 0.016656993 0.0033929984
vn 0.99858177 0.053235993 0.0005889999
vn 0.503332 0.017695 0.8639119
vn 0.010587996 0.9999287 0.0055219983
vn -0.50627786 0.026347997 0.8619678
vn -0.49329793 0.039217997 0.86897594
vn 0.010587996 0.9999287 0.0055219983
vn -0.9996037 0.028124992 0.0012019996
vn -0.99819833 0.05990802 0.0033400012
vn 0.010587996 0.9999287 0.0055219983
vn -0.5062052 0.03971201 -0.86149824
vn -0.49577305 0.058847997 -0.866456
vn 0.010587996 0.9999287 0.0055219983
vn 0.4910531 0.052518006 -0.86954516
vn 0.505943 0.037117995 -0.8617679
vn 0.010587996 0.9999287 0.0055219983
vn 0.99858177 0.053235993 0.0005889999
vn 0.9998555 0.016656993 0.0033929984
vn 0.010587996 0.9999287 0.0055219983
g polySurface37_0
f 3/3/3 2/2/2 1/1/1
f 4/4/4 3/3/3 1/1/1
f 5/5/5 4/4/4 1/1/1
f 6/6/6 5/5/5 1/1/1
f 6/6/6 1/1/1 7/7/7
f 8/8/8 6/6/6 7/7/7
f 1/1/1 9/9/9 7/7/7
f 8/8/8 7/7/7 10/10/10
f 7/7/7 9/9/9 10/10/10
f 11/11/11 8/8/8 10/10/10
f 11/11/11 10/10/10 12/12/12
f 10/10/10 13/13/13 12/12/12
f 13/13/13 10/10/10 14/14/14
f 10/10/10 9/9/9 14/14/14
f 15/15/15 13/13/13 14/14/14
f 14/14/14 9/9/9 16/16/16
f 15/15/15 14/14/14 16/16/16
f 16/16/16 9/9/9 17/17/17
f 18/18/18 15/15/15 16/16/16
f 18/18/18 16/16/16 17/17/17
f 18/18/18 19/19/19 15/15/15
f 20/20/20 18/18/18 17/17/17
f 21/21/21 20/20/20 17/17/17
f 22/22/22 21/21/21 17/17/17
f 17/17/17 23/23/23 22/22/22
f 17/17/17 24/24/24 23/23/23
f 17/17/17 25/25/25 24/24/24
f 28/28/28 27/27/27 26/26/26
f 29/29/29 28/28/28 26/26/26
f 29/29/29 30/30/30 28/28/28
f 30/30/30 31/31/31 28/28/28
f 31/31/31 32/32/32 28/28/28
f 30/30/30 33/33/33 31/31/31
f 34/34/34 32/32/32 31/31/31
f 33/33/33 34/34/34 31/31/31
f 35/35/35 29/29/29 26/26/26
f 35/35/35 36/36/36 29/29/29
f 35/35/35 37/37/37 36/36/36
f 26/26/26 38/38/38 35/35/35
f 38/38/38 37/37/37 35/35/35
f 26/26/26 39/39/39 38/38/38
f 38/38/38 40/40/40 37/37/37
f 40/40/40 41/41/41 37/37/37
f 38/38/38 42/42/42 40/40/40
f 33/33/33 43/43/43 34/34/34
f 33/33/33 44/44/44 43/43/43
f 43/43/43 45/45/45 34/34/34
f 45/45/45 46/46/46 34/34/34
f 43/43/43 44/44/44 47/47/47
f 43/43/43 47/47/47 45/45/45
f 44/44/44 48/48/48 47/47/47
f 47/47/47 48/48/48 49/49/49
f 47/47/47 50/50/50 45/45/45
f 47/47/47 49/49/49 50/50/50
f 50/50/50 46/46/46 45/45/45
f 49/49/49 51/51/51 50/50/50
f 51/51/51 46/46/46 50/50/50
f 49/49/49 52/52/52 51/51/51
f 53/53/53 46/46/46 51/51/51
f 52/52/52 53/53/53 51/51/51
f 54/54/54 46/46/46 53/53/53
f 52/52/52 55/55/55 53/53/53
f 55/55/55 54/54/54 53/53/53
f 55/55/55 56/56/56 54/54/54
f 55/55/55 57/57/57 56/56/56
f 56/56/56 58/58/58 54/54/54
f 58/58/58 59/59/59 54/54/54
f 56/56/56 57/57/57 60/60/60
f 56/56/56 60/60/60 58/58/58
f 57/57/57 61/61/61 60/60/60
f 60/60/60 62/62/62 58/58/58
f 62/62/62 63/63/63 58/58/58
f 66/66/66 65/65/65 64/64/64
f 67/67/67 66/66/66 64/64/64
f 68/68/68 67/67/67 64/64/64
f 68/68/68 64/64/64 69/69/69
f 64/64/64 70/70/70 69/69/69
f 69/69/69 70/70/70 71/71/71
f 72/72/72 69/69/69 71/71/71
f 72/72/72 68/68/68 69/69/69
f 68/68/68 72/72/72 73/73/73
f 74/74/74 68/68/68 73/73/73
f 67/67/67 68/68/68 74/74/74
f 75/75/75 67/67/67 74/74/74
f 76/76/76 67/67/67 75/75/75
f 67/67/67 76/76/76 66/66/66
f 77/77/77 76/76/76 75/75/75
f 76/76/76 78/78/78 66/66/66
f 78/78/78 79/79/79 66/66/66
f 76/76/76 80/80/80 78/78/78
f 80/80/80 81/81/81 78/78/78
f 71/71/71 82/82/82 72/72/72
f 71/71/71 83/83/83 82/82/82
f 82/82/82 84/84/84 72/72/72
f 72/72/72 84/84/84 85/85/85
f 86/86/86 72/72/72 85/85/85
f 85/85/85 84/84/84 87/87/87
f 84/84/84 88/88/88 87/87/87
f 82/82/82 89/89/89 84/84/84
f 82/82/82 83/83/83 89/89/89
f 89/89/89 88/88/88 84/84/84
f 89/89/89 83/83/83 90/90/90
f 88/88/88 89/89/89 90/90/90
f 90/90/90 83/83/83 91/91/91
f 88/88/88 90/90/90 91/91/91
f 91/91/91 83/83/83 92/92/92
f 93/93/93 88/88/88 91/91/91
f 93/93/93 91/91/91 92/92/92
f 88/88/88 93/93/93 94/94/94
f 95/95/95 88/88/88 94/94/94
f 94/94/94 93/93/93 96/96/96
f 93/93/93 97/97/97 96/96/96
f 97/97/97 93/93/93 92/92/92
f 96/96/96 97/97/97 98/98/98
f 97/97/97 92/92/92 99/99/99
f 92/92/92 100/100/100 99/99/99
f 97/97/97 101/101/101 98/98/98
f 101/101/101 97/97/97 99/99/99
f 98/98/98 101/101/101 102/102/102
f 101/101/101 103/103/103 102/102/102
f 103/103/103 101/101/101 104/104/104
f 101/101/101 99/99/99 104/104/104
f 99/99/99 105/105/105 104/104/104
g polySurface37_1
f 108/108/108 107/107/107 106/106/106
f 107/107/107 109/109/109 106/106/106
f 107/107/107 110/110/110 109/109/109
f 106/106/106 109/109/109 111/111/111
f 109/109/109 112/112/112 111/111/111
f 109/109/109 113/113/113 112/112/112
f 111/111/111 112/112/112 114/114/114
f 112/112/112 115/115/115 114/114/114
f 112/112/112 116/116/116 115/115/115
f 114/114/114 115/115/115 117/117/117
f 115/115/115 118/118/118 117/117/117
f 115/115/115 119/119/119 118/118/118
f 117/117/117 118/118/118 120/120/120
f 118/118/118 121/121/121 120/120/120
f 118/118/118 122/122/122 121/121/121
f 120/120/120 121/121/121 123/123/123
f 121/121/121 124/124/124 123/123/123
f 121/121/121 125/125/125 124/124/124
